<?xml version="1.0" encoding="UTF-8" standalone="no"?><!DOCTYPE svg PUBLIC "-//W3C//DTD SVG 1.1//EN" "http://www.w3.org/Graphics/SVG/1.1/DTD/svg11.dtd"><svg width="100%" height="100%" viewBox="0 0 341 203" version="1.1" xmlns="http://www.w3.org/2000/svg" xmlns:xlink="http://www.w3.org/1999/xlink" xml:space="preserve" xmlns:serif="http://www.serif.com/" style="fill-rule:evenodd;clip-rule:evenodd;stroke-linejoin:round;stroke-miterlimit:1.5;"><rect id="Artboard1" x="0" y="0" width="340.337" height="202.622" style="fill:none;"/><path d="M121.687,40.687l6.75,-3.375l-6.75,-3.375c1.688,1.688 1.688,5.063 0,6.75Z"/><path d="M123.037,37.312l-71.4,0c-1.909,0 -3.74,0.759 -5.091,2.109c-1.35,1.35 -2.109,3.182 -2.109,5.091c0,5.012 0,10.8 0,10.8" style="fill:none;stroke:#000;stroke-width:1.5px;"/><path d="M121.687,112.687l6.75,-3.375l-6.75,-3.375c1.688,1.688 1.688,5.063 0,6.75Z"/><path d="M123.037,109.312l-70.976,0c-1.91,0 -3.741,-0.758 -5.091,-2.109c-1.351,-1.35 -2.109,-3.181 -2.109,-5.091c-0,-5.012 -0,-10.8 -0,-10.8" style="fill:none;stroke:#000;stroke-width:1.5px;"/><path d="M167.062,156.562l3.375,6.75l3.375,-6.75c-1.687,1.688 -5.062,1.688 -6.75,0Z"/><path d="M170.437,157.912l0,-30.6" style="fill:none;stroke:#000;stroke-width:1.5px;"/><path d="M179.062,84.562l3.375,6.75l3.375,-6.75c-1.687,1.688 -5.062,1.688 -6.75,0Z"/><path d="M182.437,85.912l0,-30.6" style="fill:none;stroke:#000;stroke-width:1.5px;"/><path d="M260.241,13.61l4.158,-6.298l-7.533,0.452c2.305,0.618 3.992,3.541 3.375,5.846Z"/><path d="M259.722,10.012c-12.769,7.373 -47.285,27.3 -47.285,27.3" style="fill:none;stroke:#000;stroke-width:1.5px;"/><path d="M260.241,85.61l4.158,-6.298l-7.533,0.453c2.305,0.617 3.992,3.54 3.375,5.845Z"/><path d="M259.722,82.012c-12.769,7.373 -47.285,27.3 -47.285,27.3" style="fill:none;stroke:#000;stroke-width:1.5px;"/><path d="M155.062,84.562l3.375,6.75l3.375,-6.75c-1.687,1.688 -5.062,1.688 -6.75,0Z"/><path d="M158.437,85.912l0,-30.6" style="fill:none;stroke:#000;stroke-width:1.5px;"/><g transform="matrix(0.24,0,0,0.24,-754.809,-13.2093)"><g transform="matrix(50,0,0,50,3489.1,183.309)"><path d="M-0.019,0.123c-0,-0.02 0.007,-0.038 0.021,-0.052c0.015,-0.015 0.032,-0.022 0.051,-0.022c0.014,-0 0.026,0.004 0.035,0.013c0.009,0.008 0.014,0.019 0.014,0.033c0,0.03 -0.015,0.052 -0.044,0.065c0.015,0.006 0.025,0.009 0.031,0.009c0.02,-0 0.036,-0.018 0.047,-0.054c0.01,-0.035 0.028,-0.119 0.052,-0.251l0.048,-0.261l-0.085,0l-0.001,0.001l-0.003,0c-0.019,0 -0.028,-0.007 -0.028,-0.021c0,-0.018 0.01,-0.027 0.03,-0.027l0.095,0l0.001,-0.001c0.015,-0.102 0.034,-0.168 0.057,-0.2c0.014,-0.019 0.032,-0.034 0.054,-0.045c0.023,-0.011 0.046,-0.016 0.069,-0.016c0.032,-0 0.058,0.008 0.08,0.023c0.021,0.016 0.032,0.036 0.032,0.06c0,0.023 -0.007,0.041 -0.022,0.054c-0.015,0.013 -0.031,0.02 -0.049,0.02c-0.014,0 -0.026,-0.004 -0.035,-0.013c-0.009,-0.008 -0.014,-0.019 -0.014,-0.033c-0,-0.029 0.014,-0.05 0.043,-0.064c-0.012,-0.006 -0.022,-0.009 -0.031,-0.009c-0.016,0 -0.029,0.009 -0.038,0.026c-0.002,0.005 -0.007,0.024 -0.014,0.057c-0.006,0.033 -0.012,0.064 -0.018,0.094c-0.005,0.03 -0.008,0.046 -0.008,0.047l0.108,0c0.019,0 0.028,0.007 0.028,0.02c-0,0.019 -0.01,0.028 -0.03,0.028c-0.001,0 -0.001,-0 -0.001,-0c0,-0.001 -0,-0.001 -0.001,-0.001l-0.113,0c-0.036,0.209 -0.062,0.342 -0.077,0.4c-0.011,0.039 -0.023,0.073 -0.036,0.1c-0.013,0.027 -0.033,0.05 -0.058,0.071c-0.027,0.021 -0.054,0.032 -0.082,0.032c-0.027,0 -0.052,-0.007 -0.075,-0.021c-0.022,-0.015 -0.033,-0.035 -0.033,-0.062Z" style="fill-rule:nonzero;"/></g><g transform="matrix(29.15,0,0,29.15,3508.59,191.626)"><path d="M0.045,-0.269c0,-0.013 -0,-0.03 -0,-0.05c-0,-0.02 0,-0.037 0,-0.05c0.001,-0.013 0.003,-0.033 0.006,-0.058c0.003,-0.026 0.008,-0.048 0.014,-0.066c0.005,-0.018 0.014,-0.038 0.026,-0.06c0.012,-0.022 0.026,-0.04 0.043,-0.053c0.016,-0.014 0.037,-0.026 0.064,-0.035c0.026,-0.009 0.055,-0.014 0.089,-0.014c0.033,0 0.063,0.005 0.089,0.015c0.027,0.009 0.048,0.021 0.064,0.034c0.017,0.013 0.031,0.031 0.043,0.054c0.012,0.022 0.021,0.042 0.027,0.06c0.005,0.017 0.01,0.039 0.013,0.065c0.003,0.025 0.005,0.045 0.005,0.058c0.001,0.013 0.001,0.03 0.001,0.05c-0,0.02 -0,0.037 -0.001,0.05c-0,0.014 -0.002,0.033 -0.005,0.059c-0.003,0.025 -0.008,0.046 -0.013,0.064c-0.006,0.017 -0.015,0.037 -0.027,0.058c-0.012,0.021 -0.026,0.039 -0.043,0.052c-0.017,0.013 -0.038,0.024 -0.065,0.034c-0.026,0.009 -0.055,0.013 -0.088,0.013c-0.033,0 -0.063,-0.004 -0.089,-0.014c-0.027,-0.009 -0.048,-0.021 -0.064,-0.034c-0.017,-0.013 -0.031,-0.03 -0.043,-0.052c-0.012,-0.021 -0.021,-0.041 -0.026,-0.058c-0.006,-0.017 -0.011,-0.039 -0.014,-0.064c-0.003,-0.025 -0.005,-0.045 -0.006,-0.058Zm0.128,-0.062c-0,0.106 0.003,0.176 0.009,0.211c0.006,0.032 0.019,0.056 0.04,0.072c0.021,0.015 0.043,0.023 0.065,0.023c0.013,0 0.026,-0.002 0.039,-0.006c0.013,-0.005 0.026,-0.016 0.041,-0.032c0.014,-0.017 0.023,-0.04 0.027,-0.069c0.005,-0.034 0.007,-0.101 0.007,-0.199c-0,-0.125 -0.006,-0.2 -0.017,-0.225c-0.009,-0.021 -0.022,-0.036 -0.04,-0.047c-0.018,-0.011 -0.037,-0.016 -0.057,-0.016c-0.012,-0 -0.024,0.002 -0.037,0.005c-0.012,0.003 -0.026,0.013 -0.041,0.03c-0.015,0.016 -0.025,0.037 -0.028,0.064c-0.005,0.034 -0.008,0.097 -0.008,0.189Z" style="fill-rule:nonzero;"/></g></g><g transform="matrix(0.24,0,0,0.24,-762.209,77.5865)"><g transform="matrix(50,0,0,50,3489.1,183.309)"><path d="M0.085,-0.544l-0,-0.047l0.02,0c0.083,0 0.15,-0.019 0.201,-0.057c0.006,-0.005 0.013,-0.007 0.022,-0.007c0.012,0 0.019,0.002 0.022,0.007c0.003,0.004 0.004,0.012 0.004,0.025l0,0.576l0.14,0l0,0.047c-0.029,-0.002 -0.095,-0.003 -0.199,-0.003c-0.103,0 -0.17,0.001 -0.199,0.003l0,-0.047l0.139,0l-0,-0.517c-0.041,0.013 -0.085,0.02 -0.13,0.02l-0.02,0Z" style="fill-rule:nonzero;"/></g><g transform="matrix(50,0,0,50,3517.33,183.309)"><rect x="0" y="-0.292" width="0.574" height="0.036" style="fill-rule:nonzero;"/></g><g transform="matrix(50,0,0,50,3545.57,183.309)"><path d="M-0.019,0.123c-0,-0.02 0.007,-0.038 0.021,-0.052c0.015,-0.015 0.032,-0.022 0.051,-0.022c0.014,-0 0.026,0.004 0.035,0.013c0.009,0.008 0.014,0.019 0.014,0.033c0,0.03 -0.015,0.052 -0.044,0.065c0.015,0.006 0.025,0.009 0.031,0.009c0.02,-0 0.036,-0.018 0.047,-0.054c0.01,-0.035 0.028,-0.119 0.052,-0.251l0.048,-0.261l-0.085,0l-0.001,0.001l-0.003,0c-0.019,0 -0.028,-0.007 -0.028,-0.021c0,-0.018 0.01,-0.027 0.03,-0.027l0.095,0l0.001,-0.001c0.015,-0.102 0.034,-0.168 0.057,-0.2c0.014,-0.019 0.032,-0.034 0.054,-0.045c0.023,-0.011 0.046,-0.016 0.069,-0.016c0.032,-0 0.058,0.008 0.08,0.023c0.021,0.016 0.032,0.036 0.032,0.06c0,0.023 -0.007,0.041 -0.022,0.054c-0.015,0.013 -0.031,0.02 -0.049,0.02c-0.014,0 -0.026,-0.004 -0.035,-0.013c-0.009,-0.008 -0.014,-0.019 -0.014,-0.033c-0,-0.029 0.014,-0.05 0.043,-0.064c-0.012,-0.006 -0.022,-0.009 -0.031,-0.009c-0.016,0 -0.029,0.009 -0.038,0.026c-0.002,0.005 -0.007,0.024 -0.014,0.057c-0.006,0.033 -0.012,0.064 -0.018,0.094c-0.005,0.03 -0.008,0.046 -0.008,0.047l0.108,0c0.019,0 0.028,0.007 0.028,0.02c-0,0.019 -0.01,0.028 -0.03,0.028c-0.001,0 -0.001,-0 -0.001,-0c0,-0.001 -0,-0.001 -0.001,-0.001l-0.113,0c-0.036,0.209 -0.062,0.342 -0.077,0.4c-0.011,0.039 -0.023,0.073 -0.036,0.1c-0.013,0.027 -0.033,0.05 -0.058,0.071c-0.027,0.021 -0.054,0.032 -0.082,0.032c-0.027,0 -0.052,-0.007 -0.075,-0.021c-0.022,-0.015 -0.033,-0.035 -0.033,-0.062Z" style="fill-rule:nonzero;"/></g><g transform="matrix(29.15,0,0,29.15,3565.06,191.626)"><path d="M0.045,-0.269c0,-0.013 -0,-0.03 -0,-0.05c-0,-0.02 0,-0.037 0,-0.05c0.001,-0.013 0.003,-0.033 0.006,-0.058c0.003,-0.026 0.008,-0.048 0.014,-0.066c0.005,-0.018 0.014,-0.038 0.026,-0.06c0.012,-0.022 0.026,-0.04 0.043,-0.053c0.016,-0.014 0.037,-0.026 0.064,-0.035c0.026,-0.009 0.055,-0.014 0.089,-0.014c0.033,0 0.063,0.005 0.089,0.015c0.027,0.009 0.048,0.021 0.064,0.034c0.017,0.013 0.031,0.031 0.043,0.054c0.012,0.022 0.021,0.042 0.027,0.06c0.005,0.017 0.01,0.039 0.013,0.065c0.003,0.025 0.005,0.045 0.005,0.058c0.001,0.013 0.001,0.03 0.001,0.05c-0,0.02 -0,0.037 -0.001,0.05c-0,0.014 -0.002,0.033 -0.005,0.059c-0.003,0.025 -0.008,0.046 -0.013,0.064c-0.006,0.017 -0.015,0.037 -0.027,0.058c-0.012,0.021 -0.026,0.039 -0.043,0.052c-0.017,0.013 -0.038,0.024 -0.065,0.034c-0.026,0.009 -0.055,0.013 -0.088,0.013c-0.033,0 -0.063,-0.004 -0.089,-0.014c-0.027,-0.009 -0.048,-0.021 -0.064,-0.034c-0.017,-0.013 -0.031,-0.03 -0.043,-0.052c-0.012,-0.021 -0.021,-0.041 -0.026,-0.058c-0.006,-0.017 -0.011,-0.039 -0.014,-0.064c-0.003,-0.025 -0.005,-0.045 -0.006,-0.058Zm0.128,-0.062c-0,0.106 0.003,0.176 0.009,0.211c0.006,0.032 0.019,0.056 0.04,0.072c0.021,0.015 0.043,0.023 0.065,0.023c0.013,0 0.026,-0.002 0.039,-0.006c0.013,-0.005 0.026,-0.016 0.041,-0.032c0.014,-0.017 0.023,-0.04 0.027,-0.069c0.005,-0.034 0.007,-0.101 0.007,-0.199c-0,-0.125 -0.006,-0.2 -0.017,-0.225c-0.009,-0.021 -0.022,-0.036 -0.04,-0.047c-0.018,-0.011 -0.037,-0.016 -0.057,-0.016c-0.012,-0 -0.024,0.002 -0.037,0.005c-0.012,0.003 -0.026,0.013 -0.041,0.03c-0.015,0.016 -0.025,0.037 -0.028,0.064c-0.005,0.034 -0.008,0.097 -0.008,0.189Z" style="fill-rule:nonzero;"/></g></g><g transform="matrix(0.24,0,0,0.24,-705.073,32.3181)"><g transform="matrix(50,0,0,50,3489.1,183.309)"><path d="M0.085,-0.544l-0,-0.047l0.02,0c0.083,0 0.15,-0.019 0.201,-0.057c0.006,-0.005 0.013,-0.007 0.022,-0.007c0.012,0 0.019,0.002 0.022,0.007c0.003,0.004 0.004,0.012 0.004,0.025l0,0.576l0.14,0l0,0.047c-0.029,-0.002 -0.095,-0.003 -0.199,-0.003c-0.103,0 -0.17,0.001 -0.199,0.003l0,-0.047l0.139,0l-0,-0.517c-0.041,0.013 -0.085,0.02 -0.13,0.02l-0.02,0Z" style="fill-rule:nonzero;"/></g><g transform="matrix(50,0,0,50,3517.33,183.309)"><rect x="0" y="-0.292" width="0.574" height="0.036" style="fill-rule:nonzero;"/></g><g transform="matrix(50,0,0,50,3545.57,183.309)"><path d="M-0.019,0.123c-0,-0.02 0.007,-0.038 0.021,-0.052c0.015,-0.015 0.032,-0.022 0.051,-0.022c0.014,-0 0.026,0.004 0.035,0.013c0.009,0.008 0.014,0.019 0.014,0.033c0,0.03 -0.015,0.052 -0.044,0.065c0.015,0.006 0.025,0.009 0.031,0.009c0.02,-0 0.036,-0.018 0.047,-0.054c0.01,-0.035 0.028,-0.119 0.052,-0.251l0.048,-0.261l-0.085,0l-0.001,0.001l-0.003,0c-0.019,0 -0.028,-0.007 -0.028,-0.021c0,-0.018 0.01,-0.027 0.03,-0.027l0.095,0l0.001,-0.001c0.015,-0.102 0.034,-0.168 0.057,-0.2c0.014,-0.019 0.032,-0.034 0.054,-0.045c0.023,-0.011 0.046,-0.016 0.069,-0.016c0.032,-0 0.058,0.008 0.08,0.023c0.021,0.016 0.032,0.036 0.032,0.06c0,0.023 -0.007,0.041 -0.022,0.054c-0.015,0.013 -0.031,0.02 -0.049,0.02c-0.014,0 -0.026,-0.004 -0.035,-0.013c-0.009,-0.008 -0.014,-0.019 -0.014,-0.033c-0,-0.029 0.014,-0.05 0.043,-0.064c-0.012,-0.006 -0.022,-0.009 -0.031,-0.009c-0.016,0 -0.029,0.009 -0.038,0.026c-0.002,0.005 -0.007,0.024 -0.014,0.057c-0.006,0.033 -0.012,0.064 -0.018,0.094c-0.005,0.03 -0.008,0.046 -0.008,0.047l0.108,0c0.019,0 0.028,0.007 0.028,0.02c-0,0.019 -0.01,0.028 -0.03,0.028c-0.001,0 -0.001,-0 -0.001,-0c0,-0.001 -0,-0.001 -0.001,-0.001l-0.113,0c-0.036,0.209 -0.062,0.342 -0.077,0.4c-0.011,0.039 -0.023,0.073 -0.036,0.1c-0.013,0.027 -0.033,0.05 -0.058,0.071c-0.027,0.021 -0.054,0.032 -0.082,0.032c-0.027,0 -0.052,-0.007 -0.075,-0.021c-0.022,-0.015 -0.033,-0.035 -0.033,-0.062Z" style="fill-rule:nonzero;"/></g><g transform="matrix(29.15,0,0,29.15,3565.06,191.626)"><path d="M0.032,-0.156l0,-0.047l0.349,-0.437c0.006,-0.008 0.01,-0.012 0.014,-0.014c0.003,-0.001 0.01,-0.002 0.02,-0.002c0.013,0 0.022,0.002 0.025,0.006c0.003,0.003 0.005,0.012 0.005,0.026l-0,0.421l0.097,-0l-0,0.047l-0.097,0l-0,0.109l0.097,0l-0,0.047c-0.023,-0.002 -0.077,-0.003 -0.162,-0.003c-0.089,0 -0.147,0.001 -0.172,0.003l0,-0.047l0.112,0l-0,-0.109l-0.288,0Zm0.052,-0.047l0.247,-0l0,-0.31l-0.247,0.31Z" style="fill-rule:nonzero;"/></g></g><g transform="matrix(0.24,0,0,0.24,-650.743,32.3181)"><g transform="matrix(50,0,0,50,3489.1,183.309)"><path d="M0.077,-0.299c0.001,-0.004 0.002,-0.009 0.004,-0.016c0.001,-0.008 0.005,-0.02 0.012,-0.038c0.006,-0.018 0.013,-0.034 0.022,-0.047c0.009,-0.014 0.021,-0.027 0.036,-0.038c0.015,-0.011 0.032,-0.017 0.051,-0.017c0.047,-0 0.081,0.018 0.104,0.055c0.04,-0.037 0.083,-0.056 0.129,-0.056c0.033,-0 0.062,0.008 0.087,0.023c0.025,0.016 0.038,0.038 0.038,0.068c0,0.02 -0.007,0.038 -0.021,0.053c-0.015,0.015 -0.032,0.023 -0.051,0.023c-0.016,-0 -0.027,-0.005 -0.036,-0.013c-0.009,-0.009 -0.013,-0.021 -0.013,-0.034c-0,-0.029 0.016,-0.051 0.048,-0.065c-0.018,-0.012 -0.036,-0.018 -0.054,-0.018c-0.016,0 -0.032,0.004 -0.048,0.012c-0.015,0.007 -0.027,0.017 -0.037,0.028c-0.009,0.011 -0.017,0.02 -0.023,0.029c-0.005,0.008 -0.009,0.014 -0.011,0.019c-0.003,0.005 -0.005,0.015 -0.008,0.03l-0.063,0.25c-0.009,0.042 -0.031,0.062 -0.065,0.062c-0.012,0 -0.023,-0.004 -0.032,-0.011c-0.009,-0.008 -0.013,-0.018 -0.013,-0.031c-0,-0.006 0.001,-0.014 0.004,-0.025l0.067,-0.265c0.008,-0.032 0.011,-0.054 0.011,-0.066c-0,-0.021 -0.007,-0.031 -0.019,-0.031c-0.012,0 -0.023,0.01 -0.033,0.029c-0.009,0.019 -0.017,0.039 -0.023,0.062c-0.005,0.023 -0.009,0.035 -0.01,0.036c-0.004,0.006 -0.011,0.009 -0.021,0.009l-0.008,-0c-0.016,-0 -0.024,-0.006 -0.024,-0.017Z" style="fill-rule:nonzero;"/></g><g transform="matrix(29.15,0,0,29.15,3513.69,191.626)"><path d="M0.057,-0l0,-0.018c0,-0.011 0.001,-0.018 0.002,-0.021c0.001,-0.003 0.005,-0.007 0.011,-0.013l0.201,-0.205c0.072,-0.073 0.108,-0.142 0.108,-0.208c-0,-0.04 -0.012,-0.074 -0.035,-0.101c-0.023,-0.028 -0.056,-0.042 -0.097,-0.042c-0.041,0 -0.075,0.012 -0.103,0.035c0.008,0.002 0.015,0.005 0.022,0.008c0.007,0.004 0.015,0.012 0.023,0.023c0.008,0.011 0.012,0.025 0.012,0.041c0,0.023 -0.007,0.041 -0.023,0.053c-0.015,0.013 -0.031,0.019 -0.049,0.019c-0.017,-0 -0.033,-0.006 -0.048,-0.018c-0.016,-0.011 -0.024,-0.03 -0.024,-0.056c0,-0.045 0.021,-0.081 0.062,-0.109c0.041,-0.029 0.092,-0.043 0.153,-0.043c0.071,0 0.13,0.018 0.176,0.052c0.046,0.035 0.069,0.081 0.069,0.137c0,0.024 -0.003,0.044 -0.01,0.062c-0.007,0.018 -0.019,0.037 -0.038,0.057c-0.019,0.019 -0.036,0.035 -0.052,0.048c-0.016,0.013 -0.042,0.032 -0.078,0.059c-0.031,0.023 -0.079,0.061 -0.144,0.115l0.147,-0c0.06,-0 0.094,-0.002 0.102,-0.006c0.009,-0.004 0.017,-0.035 0.026,-0.091l0.047,-0l-0.031,0.222l-0.429,-0Z" style="fill-rule:nonzero;"/></g></g><g transform="matrix(0.24,0,0,0.24,-608.486,-26.6779)"><g transform="matrix(50,0,0,50,3489.1,183.309)"><path d="M0.077,-0.299c0.001,-0.004 0.002,-0.009 0.004,-0.016c0.001,-0.008 0.005,-0.02 0.012,-0.038c0.006,-0.018 0.013,-0.034 0.022,-0.047c0.009,-0.014 0.021,-0.027 0.036,-0.038c0.015,-0.011 0.032,-0.017 0.051,-0.017c0.047,-0 0.081,0.018 0.104,0.055c0.04,-0.037 0.083,-0.056 0.129,-0.056c0.033,-0 0.062,0.008 0.087,0.023c0.025,0.016 0.038,0.038 0.038,0.068c0,0.02 -0.007,0.038 -0.021,0.053c-0.015,0.015 -0.032,0.023 -0.051,0.023c-0.016,-0 -0.027,-0.005 -0.036,-0.013c-0.009,-0.009 -0.013,-0.021 -0.013,-0.034c-0,-0.029 0.016,-0.051 0.048,-0.065c-0.018,-0.012 -0.036,-0.018 -0.054,-0.018c-0.016,0 -0.032,0.004 -0.048,0.012c-0.015,0.007 -0.027,0.017 -0.037,0.028c-0.009,0.011 -0.017,0.02 -0.023,0.029c-0.005,0.008 -0.009,0.014 -0.011,0.019c-0.003,0.005 -0.005,0.015 -0.008,0.03l-0.063,0.25c-0.009,0.042 -0.031,0.062 -0.065,0.062c-0.012,0 -0.023,-0.004 -0.032,-0.011c-0.009,-0.008 -0.013,-0.018 -0.013,-0.031c-0,-0.006 0.001,-0.014 0.004,-0.025l0.067,-0.265c0.008,-0.032 0.011,-0.054 0.011,-0.066c-0,-0.021 -0.007,-0.031 -0.019,-0.031c-0.012,0 -0.023,0.01 -0.033,0.029c-0.009,0.019 -0.017,0.039 -0.023,0.062c-0.005,0.023 -0.009,0.035 -0.01,0.036c-0.004,0.006 -0.011,0.009 -0.021,0.009l-0.008,-0c-0.016,-0 -0.024,-0.006 -0.024,-0.017Z" style="fill-rule:nonzero;"/></g><g transform="matrix(29.15,0,0,29.15,3513.69,191.626)"><path d="M0.085,-0.544l-0,-0.047l0.02,0c0.083,0 0.15,-0.019 0.201,-0.057c0.006,-0.005 0.013,-0.007 0.022,-0.007c0.012,0 0.019,0.002 0.022,0.007c0.003,0.004 0.004,0.012 0.004,0.025l0,0.576l0.14,0l0,0.047c-0.029,-0.002 -0.095,-0.003 -0.199,-0.003c-0.103,0 -0.17,0.001 -0.199,0.003l0,-0.047l0.139,0l-0,-0.517c-0.041,0.013 -0.085,0.02 -0.13,0.02l-0.02,0Z" style="fill-rule:nonzero;"/></g></g><g transform="matrix(0.24,0,0,0.24,-608.486,45.2436)"><g transform="matrix(50,0,0,50,3489.1,183.309)"><path d="M0.077,-0.299c0.001,-0.004 0.002,-0.009 0.004,-0.016c0.001,-0.008 0.005,-0.02 0.012,-0.038c0.006,-0.018 0.013,-0.034 0.022,-0.047c0.009,-0.014 0.021,-0.027 0.036,-0.038c0.015,-0.011 0.032,-0.017 0.051,-0.017c0.047,-0 0.081,0.018 0.104,0.055c0.04,-0.037 0.083,-0.056 0.129,-0.056c0.033,-0 0.062,0.008 0.087,0.023c0.025,0.016 0.038,0.038 0.038,0.068c0,0.02 -0.007,0.038 -0.021,0.053c-0.015,0.015 -0.032,0.023 -0.051,0.023c-0.016,-0 -0.027,-0.005 -0.036,-0.013c-0.009,-0.009 -0.013,-0.021 -0.013,-0.034c-0,-0.029 0.016,-0.051 0.048,-0.065c-0.018,-0.012 -0.036,-0.018 -0.054,-0.018c-0.016,0 -0.032,0.004 -0.048,0.012c-0.015,0.007 -0.027,0.017 -0.037,0.028c-0.009,0.011 -0.017,0.02 -0.023,0.029c-0.005,0.008 -0.009,0.014 -0.011,0.019c-0.003,0.005 -0.005,0.015 -0.008,0.03l-0.063,0.25c-0.009,0.042 -0.031,0.062 -0.065,0.062c-0.012,0 -0.023,-0.004 -0.032,-0.011c-0.009,-0.008 -0.013,-0.018 -0.013,-0.031c-0,-0.006 0.001,-0.014 0.004,-0.025l0.067,-0.265c0.008,-0.032 0.011,-0.054 0.011,-0.066c-0,-0.021 -0.007,-0.031 -0.019,-0.031c-0.012,0 -0.023,0.01 -0.033,0.029c-0.009,0.019 -0.017,0.039 -0.023,0.062c-0.005,0.023 -0.009,0.035 -0.01,0.036c-0.004,0.006 -0.011,0.009 -0.021,0.009l-0.008,-0c-0.016,-0 -0.024,-0.006 -0.024,-0.017Z" style="fill-rule:nonzero;"/></g><g transform="matrix(29.15,0,0,29.15,3513.69,191.626)"><path d="M0.048,-0.139c-0,-0.025 0.007,-0.044 0.022,-0.058c0.014,-0.013 0.033,-0.02 0.055,-0.02c0.022,0 0.04,0.007 0.055,0.021c0.014,0.014 0.021,0.032 0.021,0.055c0,0.039 -0.019,0.064 -0.058,0.075c0.036,0.023 0.078,0.034 0.126,0.034c0.02,-0 0.037,-0.004 0.051,-0.012c0.014,-0.008 0.024,-0.017 0.031,-0.027c0.007,-0.009 0.012,-0.022 0.015,-0.038c0.004,-0.016 0.006,-0.028 0.007,-0.037c-0,-0.01 0,-0.021 0,-0.035c0,-0.015 -0,-0.027 -0,-0.036c-0.001,-0.009 -0.003,-0.021 -0.007,-0.037c-0.004,-0.017 -0.01,-0.03 -0.017,-0.039c-0.007,-0.009 -0.017,-0.018 -0.032,-0.026c-0.015,-0.007 -0.032,-0.011 -0.053,-0.011l-0.044,-0c-0.007,-0 -0.012,-0 -0.015,-0.001c-0.003,0 -0.006,-0.001 -0.009,-0.004c-0.003,-0.003 -0.004,-0.007 -0.004,-0.013c-0,-0.011 0.004,-0.017 0.012,-0.017c0.008,-0.002 0.024,-0.003 0.048,-0.004c0.017,-0.001 0.031,-0.005 0.044,-0.012c0.013,-0.007 0.022,-0.016 0.029,-0.027c0.007,-0.011 0.013,-0.022 0.018,-0.033c0.005,-0.011 0.008,-0.022 0.01,-0.035c0.002,-0.013 0.003,-0.022 0.003,-0.028c0.001,-0.005 0.001,-0.01 0.001,-0.015c-0,-0.065 -0.029,-0.097 -0.086,-0.097c-0.043,-0 -0.08,0.012 -0.11,0.036c0.039,0.009 0.058,0.033 0.058,0.07c0,0.019 -0.006,0.036 -0.019,0.049c-0.012,0.013 -0.03,0.02 -0.051,0.02c-0.019,0 -0.036,-0.006 -0.049,-0.019c-0.013,-0.013 -0.02,-0.03 -0.02,-0.051c0,-0.041 0.018,-0.075 0.055,-0.103c0.036,-0.027 0.083,-0.041 0.142,-0.041c0.068,0 0.121,0.013 0.16,0.04c0.038,0.026 0.057,0.059 0.057,0.099c0,0.04 -0.014,0.074 -0.042,0.103c-0.028,0.029 -0.061,0.049 -0.1,0.061c0.034,0.007 0.063,0.018 0.087,0.032c0.025,0.013 0.043,0.029 0.055,0.046c0.011,0.017 0.02,0.032 0.025,0.047c0.004,0.015 0.007,0.031 0.007,0.047c-0,0.051 -0.021,0.096 -0.064,0.134c-0.042,0.038 -0.105,0.057 -0.188,0.057c-0.066,0 -0.12,-0.014 -0.162,-0.042c-0.043,-0.027 -0.064,-0.064 -0.064,-0.108Z" style="fill-rule:nonzero;"/></g></g><g transform="matrix(0.24,0,0,0.24,-663.027,103.056)"><g transform="matrix(50,0,0,50,3489.1,183.309)"><path d="M0.077,-0.299c0.001,-0.004 0.002,-0.009 0.004,-0.016c0.001,-0.008 0.005,-0.02 0.012,-0.038c0.006,-0.018 0.013,-0.034 0.022,-0.047c0.009,-0.014 0.021,-0.027 0.036,-0.038c0.015,-0.011 0.032,-0.017 0.051,-0.017c0.047,-0 0.081,0.018 0.104,0.055c0.04,-0.037 0.083,-0.056 0.129,-0.056c0.033,-0 0.062,0.008 0.087,0.023c0.025,0.016 0.038,0.038 0.038,0.068c0,0.02 -0.007,0.038 -0.021,0.053c-0.015,0.015 -0.032,0.023 -0.051,0.023c-0.016,-0 -0.027,-0.005 -0.036,-0.013c-0.009,-0.009 -0.013,-0.021 -0.013,-0.034c-0,-0.029 0.016,-0.051 0.048,-0.065c-0.018,-0.012 -0.036,-0.018 -0.054,-0.018c-0.016,0 -0.032,0.004 -0.048,0.012c-0.015,0.007 -0.027,0.017 -0.037,0.028c-0.009,0.011 -0.017,0.02 -0.023,0.029c-0.005,0.008 -0.009,0.014 -0.011,0.019c-0.003,0.005 -0.005,0.015 -0.008,0.03l-0.063,0.25c-0.009,0.042 -0.031,0.062 -0.065,0.062c-0.012,0 -0.023,-0.004 -0.032,-0.011c-0.009,-0.008 -0.013,-0.018 -0.013,-0.031c-0,-0.006 0.001,-0.014 0.004,-0.025l0.067,-0.265c0.008,-0.032 0.011,-0.054 0.011,-0.066c-0,-0.021 -0.007,-0.031 -0.019,-0.031c-0.012,0 -0.023,0.01 -0.033,0.029c-0.009,0.019 -0.017,0.039 -0.023,0.062c-0.005,0.023 -0.009,0.035 -0.01,0.036c-0.004,0.006 -0.011,0.009 -0.021,0.009l-0.008,-0c-0.016,-0 -0.024,-0.006 -0.024,-0.017Z" style="fill-rule:nonzero;"/></g><g transform="matrix(29.15,0,0,29.15,3513.69,191.626)"><path d="M0.057,-0.159c0,-0.019 0.005,-0.034 0.015,-0.045c0.009,-0.011 0.018,-0.018 0.027,-0.021c0.009,-0.003 0.018,-0.004 0.025,-0.004c0.016,-0 0.031,0.006 0.045,0.017c0.015,0.011 0.022,0.028 0.022,0.051c-0,0.02 -0.006,0.036 -0.019,0.047c-0.012,0.012 -0.027,0.018 -0.046,0.02c0.031,0.041 0.074,0.062 0.129,0.062c0.016,-0 0.031,-0.002 0.044,-0.006c0.013,-0.004 0.024,-0.009 0.033,-0.015c0.008,-0.006 0.015,-0.014 0.021,-0.024c0.005,-0.011 0.009,-0.02 0.012,-0.028c0.004,-0.009 0.006,-0.02 0.007,-0.034c0.001,-0.014 0.002,-0.025 0.003,-0.033c-0,-0.008 0,-0.019 0,-0.033c0,-0.022 -0,-0.038 -0,-0.049c-0.001,-0.011 -0.002,-0.026 -0.005,-0.044c-0.003,-0.017 -0.008,-0.031 -0.014,-0.04c-0.006,-0.009 -0.015,-0.017 -0.026,-0.024c-0.012,-0.007 -0.027,-0.011 -0.044,-0.011c-0.058,-0 -0.103,0.019 -0.134,0.056c-0.007,0.008 -0.014,0.012 -0.022,0.012c-0.007,-0 -0.012,-0.002 -0.015,-0.005c-0.003,-0.003 -0.005,-0.006 -0.006,-0.01c-0.001,-0.003 -0.001,-0.009 -0.001,-0.016l-0,-0.292c-0,-0.006 0,-0.011 0,-0.014c0.001,-0.003 0.002,-0.006 0.004,-0.009c0.002,-0.002 0.006,-0.004 0.01,-0.004c0.001,0 0.005,0.002 0.013,0.004c0.054,0.019 0.106,0.028 0.155,0.028c0.053,-0 0.104,-0.009 0.153,-0.028c0.007,-0.002 0.012,-0.004 0.015,-0.004c0.009,0 0.014,0.006 0.014,0.018c0,0.007 -0.006,0.018 -0.017,0.033c-0.012,0.014 -0.028,0.029 -0.047,0.045c-0.019,0.016 -0.045,0.03 -0.076,0.042c-0.031,0.012 -0.064,0.018 -0.098,0.018c-0.023,-0 -0.047,-0.002 -0.073,-0.007l0,0.132c0.034,-0.023 0.077,-0.035 0.129,-0.035c0.071,-0 0.127,0.02 0.167,0.059c0.04,0.039 0.06,0.089 0.06,0.149c0,0.062 -0.023,0.113 -0.07,0.152c-0.047,0.04 -0.109,0.06 -0.188,0.06c-0.059,0 -0.108,-0.017 -0.145,-0.052c-0.038,-0.034 -0.057,-0.074 -0.057,-0.118Z" style="fill-rule:nonzero;"/></g></g><g transform="matrix(0.24,0,0,0.24,1.74095,-348.389)"><g transform="matrix(50,0,0,50,1108.95,1497.66)"><path d="M0.088,-0l-0,-0.71l0.09,0l0.347,0.549l-0.011,0.013l-0,-0.562l0.098,0l0,0.71l-0.091,-0l-0.346,-0.541l0.012,-0.013l-0,0.554l-0.099,-0Z" style="fill-rule:nonzero;"/></g><g transform="matrix(50,0,0,50,1143.46,1497.66)"><path d="M0.491,-0l0,-0.71l0.1,0l-0,0.71l-0.1,-0Zm-0.403,-0l-0,-0.71l0.1,0l-0,0.71l-0.1,-0Zm0.062,-0.302l-0,-0.095l0.394,0l-0,0.095l-0.394,-0Z" style="fill-rule:nonzero;"/></g><g transform="matrix(29.15,0,0,29.15,1176.89,1501.81)"><path d="M0.257,0.007c-0.04,0 -0.075,-0.007 -0.105,-0.021c-0.03,-0.015 -0.055,-0.036 -0.073,-0.063c-0.018,-0.027 -0.03,-0.061 -0.035,-0.1l0.102,0c0.004,0.031 0.016,0.053 0.036,0.067c0.019,0.015 0.044,0.022 0.075,0.022c0.033,-0 0.058,-0.009 0.076,-0.027c0.019,-0.017 0.028,-0.042 0.028,-0.074l-0,-0.021c-0,-0.036 -0.009,-0.063 -0.026,-0.083c-0.017,-0.019 -0.042,-0.029 -0.073,-0.029l-0.051,0l0,-0.095l0.051,0c0.028,0 0.049,-0.008 0.064,-0.024c0.016,-0.017 0.023,-0.04 0.023,-0.071l0,-0.022c0,-0.028 -0.008,-0.049 -0.024,-0.065c-0.016,-0.015 -0.039,-0.023 -0.069,-0.023c-0.025,0 -0.046,0.007 -0.063,0.022c-0.018,0.014 -0.03,0.036 -0.036,0.067l-0.101,-0c0.01,-0.059 0.032,-0.104 0.067,-0.136c0.035,-0.032 0.08,-0.048 0.133,-0.048c0.062,-0 0.109,0.016 0.142,0.048c0.034,0.032 0.051,0.078 0.051,0.136l-0,0.012c-0,0.035 -0.01,0.066 -0.029,0.093c-0.019,0.026 -0.046,0.045 -0.082,0.057c0.039,0.009 0.069,0.027 0.09,0.057c0.022,0.03 0.032,0.068 0.032,0.114l0,0.012c0,0.062 -0.017,0.11 -0.053,0.144c-0.035,0.034 -0.085,0.051 -0.15,0.051Z" style="fill-rule:nonzero;"/></g><g transform="matrix(50,0,0,50,1204.95,1497.66)"><path d="M0.088,-0l-0,-0.71l0.1,0l-0.001,0.71l-0.099,-0Zm0.048,-0l0,-0.095l0.408,0l-0,0.095l-0.408,-0Zm0,-0.305l0,-0.095l0.354,0l0,0.095l-0.354,-0Zm0,-0.31l0,-0.095l0.408,0l-0,0.095l-0.408,-0Z" style="fill-rule:nonzero;"/></g><g transform="matrix(50,0,0,50,1234.33,1497.66)"><path d="M0.684,-0l-0,-0.307c-0,-0.036 -0.01,-0.064 -0.028,-0.083c-0.018,-0.02 -0.045,-0.029 -0.078,-0.029c-0.031,-0 -0.055,0.009 -0.072,0.028c-0.017,0.019 -0.026,0.045 -0.026,0.08l-0.02,-0.098c0.017,-0.034 0.038,-0.06 0.064,-0.078c0.026,-0.018 0.055,-0.027 0.086,-0.027c0.055,-0 0.098,0.018 0.128,0.054c0.03,0.036 0.045,0.087 0.045,0.152l0,0.308l-0.099,0Zm-0.606,0l0,-0.507l0.1,0l-0,0.507l-0.1,0Zm0.303,0l-0,-0.307c-0,-0.036 -0.009,-0.064 -0.027,-0.083c-0.017,-0.02 -0.042,-0.029 -0.074,-0.029c-0.033,-0 -0.058,0.008 -0.076,0.025c-0.017,0.018 -0.026,0.042 -0.026,0.073l-0.011,-0.097c0.016,-0.031 0.037,-0.055 0.062,-0.071c0.025,-0.017 0.053,-0.025 0.083,-0.025c0.054,-0 0.095,0.018 0.125,0.054c0.029,0.036 0.043,0.087 0.043,0.152l0,0.308l-0.099,0Z" style="fill-rule:nonzero;"/></g><g transform="matrix(50,0,0,50,1276.65,1497.66)"><path d="M0.078,-0.61l0,-0.1l0.1,0l-0,0.1l-0.1,-0Zm0,0.61l0,-0.507l0.1,0l-0,0.507l-0.1,-0Z" style="fill-rule:nonzero;"/></g><g transform="matrix(50,0,0,50,1288.7,1497.66)"><path d="M0.257,0.007c-0.045,0 -0.085,-0.006 -0.122,-0.019c-0.037,-0.014 -0.069,-0.033 -0.098,-0.06l0.059,-0.073c0.027,0.021 0.055,0.037 0.081,0.047c0.027,0.011 0.054,0.016 0.08,0.016c0.04,-0 0.069,-0.006 0.089,-0.018c0.02,-0.013 0.029,-0.031 0.029,-0.055c0,-0.019 -0.006,-0.033 -0.019,-0.04c-0.013,-0.008 -0.031,-0.013 -0.052,-0.016c-0.021,-0.002 -0.044,-0.004 -0.069,-0.006c-0.02,-0.001 -0.041,-0.004 -0.061,-0.007c-0.02,-0.004 -0.038,-0.01 -0.055,-0.019c-0.016,-0.009 -0.03,-0.022 -0.04,-0.04c-0.01,-0.017 -0.015,-0.041 -0.015,-0.071c0,-0.053 0.017,-0.093 0.05,-0.12c0.033,-0.027 0.082,-0.04 0.147,-0.04c0.039,-0 0.076,0.005 0.111,0.016c0.034,0.011 0.066,0.027 0.096,0.049l-0.06,0.073c-0.026,-0.016 -0.051,-0.028 -0.075,-0.037c-0.025,-0.008 -0.049,-0.012 -0.072,-0.012c-0.034,0 -0.06,0.006 -0.076,0.018c-0.017,0.011 -0.026,0.028 -0.026,0.052c0,0.015 0.006,0.026 0.018,0.032c0.011,0.007 0.027,0.011 0.046,0.013c0.019,0.002 0.04,0.004 0.062,0.006c0.021,0.001 0.043,0.003 0.064,0.007c0.022,0.003 0.042,0.01 0.06,0.02c0.018,0.009 0.033,0.024 0.044,0.043c0.011,0.019 0.017,0.046 0.017,0.079c-0,0.054 -0.018,0.095 -0.053,0.122c-0.036,0.027 -0.089,0.04 -0.16,0.04Z" style="fill-rule:nonzero;"/></g><g transform="matrix(50,0,0,50,1314.13,1497.66)"><path d="M0.257,0.007c-0.045,0 -0.085,-0.006 -0.122,-0.019c-0.037,-0.014 -0.069,-0.033 -0.098,-0.06l0.059,-0.073c0.027,0.021 0.055,0.037 0.081,0.047c0.027,0.011 0.054,0.016 0.08,0.016c0.04,-0 0.069,-0.006 0.089,-0.018c0.02,-0.013 0.029,-0.031 0.029,-0.055c0,-0.019 -0.006,-0.033 -0.019,-0.04c-0.013,-0.008 -0.031,-0.013 -0.052,-0.016c-0.021,-0.002 -0.044,-0.004 -0.069,-0.006c-0.02,-0.001 -0.041,-0.004 -0.061,-0.007c-0.02,-0.004 -0.038,-0.01 -0.055,-0.019c-0.016,-0.009 -0.03,-0.022 -0.04,-0.04c-0.01,-0.017 -0.015,-0.041 -0.015,-0.071c0,-0.053 0.017,-0.093 0.05,-0.12c0.033,-0.027 0.082,-0.04 0.147,-0.04c0.039,-0 0.076,0.005 0.111,0.016c0.034,0.011 0.066,0.027 0.096,0.049l-0.06,0.073c-0.026,-0.016 -0.051,-0.028 -0.075,-0.037c-0.025,-0.008 -0.049,-0.012 -0.072,-0.012c-0.034,0 -0.06,0.006 -0.076,0.018c-0.017,0.011 -0.026,0.028 -0.026,0.052c0,0.015 0.006,0.026 0.018,0.032c0.011,0.007 0.027,0.011 0.046,0.013c0.019,0.002 0.04,0.004 0.062,0.006c0.021,0.001 0.043,0.003 0.064,0.007c0.022,0.003 0.042,0.01 0.06,0.02c0.018,0.009 0.033,0.024 0.044,0.043c0.011,0.019 0.017,0.046 0.017,0.079c-0,0.054 -0.018,0.095 -0.053,0.122c-0.036,0.027 -0.089,0.04 -0.16,0.04Z" style="fill-rule:nonzero;"/></g><g transform="matrix(50,0,0,50,1339.56,1497.66)"><path d="M0.078,-0.61l0,-0.1l0.1,0l-0,0.1l-0.1,-0Zm0,0.61l0,-0.507l0.1,0l-0,0.507l-0.1,-0Z" style="fill-rule:nonzero;"/></g><g transform="matrix(50,0,0,50,1351.6,1497.66)"><path d="M0.272,0.007c-0.066,0 -0.117,-0.019 -0.154,-0.058c-0.036,-0.038 -0.055,-0.092 -0.055,-0.162l0,-0.083c0,-0.069 0.019,-0.123 0.055,-0.161c0.037,-0.038 0.088,-0.057 0.154,-0.057c0.067,-0 0.118,0.019 0.155,0.057c0.036,0.038 0.054,0.092 0.054,0.161l0,0.084c0,0.07 -0.018,0.124 -0.054,0.162c-0.037,0.038 -0.088,0.057 -0.155,0.057Zm0,-0.094c0.035,-0 0.062,-0.011 0.081,-0.033c0.019,-0.022 0.029,-0.053 0.029,-0.092l-0,-0.084c-0,-0.039 -0.01,-0.07 -0.029,-0.091c-0.019,-0.022 -0.046,-0.032 -0.081,-0.032c-0.034,-0 -0.061,0.01 -0.08,0.032c-0.019,0.021 -0.029,0.052 -0.029,0.091l0,0.084c0,0.039 0.01,0.07 0.029,0.092c0.019,0.022 0.046,0.033 0.08,0.033Z" style="fill-rule:nonzero;"/></g><g transform="matrix(50,0,0,50,1378.35,1497.66)"><path d="M0.078,-0l0,-0.507l0.1,0l-0,0.507l-0.1,-0Zm0.308,-0l-0,-0.307c-0,-0.036 -0.009,-0.064 -0.028,-0.083c-0.018,-0.02 -0.044,-0.029 -0.078,-0.029c-0.033,-0 -0.058,0.008 -0.076,0.025c-0.017,0.018 -0.026,0.042 -0.026,0.073l-0.011,-0.097c0.016,-0.031 0.037,-0.055 0.062,-0.071c0.025,-0.017 0.053,-0.025 0.084,-0.025c0.055,-0 0.097,0.018 0.127,0.054c0.03,0.036 0.045,0.087 0.045,0.152l0,0.308l-0.099,0Z" style="fill-rule:nonzero;"/></g></g><g transform="matrix(0.24,0,0,0.24,1.74095,-276.389)"><g transform="matrix(50,0,0,50,1108.95,1497.66)"><path d="M0.088,-0l-0,-0.71l0.09,0l0.347,0.549l-0.011,0.013l-0,-0.562l0.098,0l0,0.71l-0.091,-0l-0.346,-0.541l0.012,-0.013l-0,0.554l-0.099,-0Z" style="fill-rule:nonzero;"/></g><g transform="matrix(50,0,0,50,1143.46,1497.66)"><path d="M0.491,-0l0,-0.71l0.1,0l-0,0.71l-0.1,-0Zm-0.403,-0l-0,-0.71l0.1,0l-0,0.71l-0.1,-0Zm0.062,-0.302l-0,-0.095l0.394,0l-0,0.095l-0.394,-0Z" style="fill-rule:nonzero;"/></g><g transform="matrix(29.15,0,0,29.15,1176.89,1501.81)"><path d="M0.257,0.007c-0.04,0 -0.075,-0.007 -0.105,-0.021c-0.03,-0.015 -0.055,-0.036 -0.073,-0.063c-0.018,-0.027 -0.03,-0.061 -0.035,-0.1l0.102,0c0.004,0.031 0.016,0.053 0.036,0.067c0.019,0.015 0.044,0.022 0.075,0.022c0.033,-0 0.058,-0.009 0.076,-0.027c0.019,-0.017 0.028,-0.042 0.028,-0.074l-0,-0.021c-0,-0.036 -0.009,-0.063 -0.026,-0.083c-0.017,-0.019 -0.042,-0.029 -0.073,-0.029l-0.051,0l0,-0.095l0.051,0c0.028,0 0.049,-0.008 0.064,-0.024c0.016,-0.017 0.023,-0.04 0.023,-0.071l0,-0.022c0,-0.028 -0.008,-0.049 -0.024,-0.065c-0.016,-0.015 -0.039,-0.023 -0.069,-0.023c-0.025,0 -0.046,0.007 -0.063,0.022c-0.018,0.014 -0.03,0.036 -0.036,0.067l-0.101,-0c0.01,-0.059 0.032,-0.104 0.067,-0.136c0.035,-0.032 0.08,-0.048 0.133,-0.048c0.062,-0 0.109,0.016 0.142,0.048c0.034,0.032 0.051,0.078 0.051,0.136l-0,0.012c-0,0.035 -0.01,0.066 -0.029,0.093c-0.019,0.026 -0.046,0.045 -0.082,0.057c0.039,0.009 0.069,0.027 0.09,0.057c0.022,0.03 0.032,0.068 0.032,0.114l0,0.012c0,0.062 -0.017,0.11 -0.053,0.144c-0.035,0.034 -0.085,0.051 -0.15,0.051Z" style="fill-rule:nonzero;"/></g><g transform="matrix(50,0,0,50,1204.95,1497.66)"><path d="M0.088,-0l-0,-0.71l0.1,0l-0.001,0.71l-0.099,-0Zm0.048,-0l0,-0.095l0.408,0l-0,0.095l-0.408,-0Zm0,-0.305l0,-0.095l0.354,0l0,0.095l-0.354,-0Zm0,-0.31l0,-0.095l0.408,0l-0,0.095l-0.408,-0Z" style="fill-rule:nonzero;"/></g><g transform="matrix(50,0,0,50,1234.33,1497.66)"><path d="M0.684,-0l-0,-0.307c-0,-0.036 -0.01,-0.064 -0.028,-0.083c-0.018,-0.02 -0.045,-0.029 -0.078,-0.029c-0.031,-0 -0.055,0.009 -0.072,0.028c-0.017,0.019 -0.026,0.045 -0.026,0.08l-0.02,-0.098c0.017,-0.034 0.038,-0.06 0.064,-0.078c0.026,-0.018 0.055,-0.027 0.086,-0.027c0.055,-0 0.098,0.018 0.128,0.054c0.03,0.036 0.045,0.087 0.045,0.152l0,0.308l-0.099,0Zm-0.606,0l0,-0.507l0.1,0l-0,0.507l-0.1,0Zm0.303,0l-0,-0.307c-0,-0.036 -0.009,-0.064 -0.027,-0.083c-0.017,-0.02 -0.042,-0.029 -0.074,-0.029c-0.033,-0 -0.058,0.008 -0.076,0.025c-0.017,0.018 -0.026,0.042 -0.026,0.073l-0.011,-0.097c0.016,-0.031 0.037,-0.055 0.062,-0.071c0.025,-0.017 0.053,-0.025 0.083,-0.025c0.054,-0 0.095,0.018 0.125,0.054c0.029,0.036 0.043,0.087 0.043,0.152l0,0.308l-0.099,0Z" style="fill-rule:nonzero;"/></g><g transform="matrix(50,0,0,50,1276.65,1497.66)"><path d="M0.078,-0.61l0,-0.1l0.1,0l-0,0.1l-0.1,-0Zm0,0.61l0,-0.507l0.1,0l-0,0.507l-0.1,-0Z" style="fill-rule:nonzero;"/></g><g transform="matrix(50,0,0,50,1288.7,1497.66)"><path d="M0.257,0.007c-0.045,0 -0.085,-0.006 -0.122,-0.019c-0.037,-0.014 -0.069,-0.033 -0.098,-0.06l0.059,-0.073c0.027,0.021 0.055,0.037 0.081,0.047c0.027,0.011 0.054,0.016 0.08,0.016c0.04,-0 0.069,-0.006 0.089,-0.018c0.02,-0.013 0.029,-0.031 0.029,-0.055c0,-0.019 -0.006,-0.033 -0.019,-0.04c-0.013,-0.008 -0.031,-0.013 -0.052,-0.016c-0.021,-0.002 -0.044,-0.004 -0.069,-0.006c-0.02,-0.001 -0.041,-0.004 -0.061,-0.007c-0.02,-0.004 -0.038,-0.01 -0.055,-0.019c-0.016,-0.009 -0.03,-0.022 -0.04,-0.04c-0.01,-0.017 -0.015,-0.041 -0.015,-0.071c0,-0.053 0.017,-0.093 0.05,-0.12c0.033,-0.027 0.082,-0.04 0.147,-0.04c0.039,-0 0.076,0.005 0.111,0.016c0.034,0.011 0.066,0.027 0.096,0.049l-0.06,0.073c-0.026,-0.016 -0.051,-0.028 -0.075,-0.037c-0.025,-0.008 -0.049,-0.012 -0.072,-0.012c-0.034,0 -0.06,0.006 -0.076,0.018c-0.017,0.011 -0.026,0.028 -0.026,0.052c0,0.015 0.006,0.026 0.018,0.032c0.011,0.007 0.027,0.011 0.046,0.013c0.019,0.002 0.04,0.004 0.062,0.006c0.021,0.001 0.043,0.003 0.064,0.007c0.022,0.003 0.042,0.01 0.06,0.02c0.018,0.009 0.033,0.024 0.044,0.043c0.011,0.019 0.017,0.046 0.017,0.079c-0,0.054 -0.018,0.095 -0.053,0.122c-0.036,0.027 -0.089,0.04 -0.16,0.04Z" style="fill-rule:nonzero;"/></g><g transform="matrix(50,0,0,50,1314.13,1497.66)"><path d="M0.257,0.007c-0.045,0 -0.085,-0.006 -0.122,-0.019c-0.037,-0.014 -0.069,-0.033 -0.098,-0.06l0.059,-0.073c0.027,0.021 0.055,0.037 0.081,0.047c0.027,0.011 0.054,0.016 0.08,0.016c0.04,-0 0.069,-0.006 0.089,-0.018c0.02,-0.013 0.029,-0.031 0.029,-0.055c0,-0.019 -0.006,-0.033 -0.019,-0.04c-0.013,-0.008 -0.031,-0.013 -0.052,-0.016c-0.021,-0.002 -0.044,-0.004 -0.069,-0.006c-0.02,-0.001 -0.041,-0.004 -0.061,-0.007c-0.02,-0.004 -0.038,-0.01 -0.055,-0.019c-0.016,-0.009 -0.03,-0.022 -0.04,-0.04c-0.01,-0.017 -0.015,-0.041 -0.015,-0.071c0,-0.053 0.017,-0.093 0.05,-0.12c0.033,-0.027 0.082,-0.04 0.147,-0.04c0.039,-0 0.076,0.005 0.111,0.016c0.034,0.011 0.066,0.027 0.096,0.049l-0.06,0.073c-0.026,-0.016 -0.051,-0.028 -0.075,-0.037c-0.025,-0.008 -0.049,-0.012 -0.072,-0.012c-0.034,0 -0.06,0.006 -0.076,0.018c-0.017,0.011 -0.026,0.028 -0.026,0.052c0,0.015 0.006,0.026 0.018,0.032c0.011,0.007 0.027,0.011 0.046,0.013c0.019,0.002 0.04,0.004 0.062,0.006c0.021,0.001 0.043,0.003 0.064,0.007c0.022,0.003 0.042,0.01 0.06,0.02c0.018,0.009 0.033,0.024 0.044,0.043c0.011,0.019 0.017,0.046 0.017,0.079c-0,0.054 -0.018,0.095 -0.053,0.122c-0.036,0.027 -0.089,0.04 -0.16,0.04Z" style="fill-rule:nonzero;"/></g><g transform="matrix(50,0,0,50,1339.56,1497.66)"><path d="M0.078,-0.61l0,-0.1l0.1,0l-0,0.1l-0.1,-0Zm0,0.61l0,-0.507l0.1,0l-0,0.507l-0.1,-0Z" style="fill-rule:nonzero;"/></g><g transform="matrix(50,0,0,50,1351.6,1497.66)"><path d="M0.272,0.007c-0.066,0 -0.117,-0.019 -0.154,-0.058c-0.036,-0.038 -0.055,-0.092 -0.055,-0.162l0,-0.083c0,-0.069 0.019,-0.123 0.055,-0.161c0.037,-0.038 0.088,-0.057 0.154,-0.057c0.067,-0 0.118,0.019 0.155,0.057c0.036,0.038 0.054,0.092 0.054,0.161l0,0.084c0,0.07 -0.018,0.124 -0.054,0.162c-0.037,0.038 -0.088,0.057 -0.155,0.057Zm0,-0.094c0.035,-0 0.062,-0.011 0.081,-0.033c0.019,-0.022 0.029,-0.053 0.029,-0.092l-0,-0.084c-0,-0.039 -0.01,-0.07 -0.029,-0.091c-0.019,-0.022 -0.046,-0.032 -0.081,-0.032c-0.034,-0 -0.061,0.01 -0.08,0.032c-0.019,0.021 -0.029,0.052 -0.029,0.091l0,0.084c0,0.039 0.01,0.07 0.029,0.092c0.019,0.022 0.046,0.033 0.08,0.033Z" style="fill-rule:nonzero;"/></g><g transform="matrix(50,0,0,50,1378.35,1497.66)"><path d="M0.078,-0l0,-0.507l0.1,0l-0,0.507l-0.1,-0Zm0.308,-0l-0,-0.307c-0,-0.036 -0.009,-0.064 -0.028,-0.083c-0.018,-0.02 -0.044,-0.029 -0.078,-0.029c-0.033,-0 -0.058,0.008 -0.076,0.025c-0.017,0.018 -0.026,0.042 -0.026,0.073l-0.011,-0.097c0.016,-0.031 0.037,-0.055 0.062,-0.071c0.025,-0.017 0.053,-0.025 0.084,-0.025c0.055,-0 0.097,0.018 0.127,0.054c0.03,0.036 0.045,0.087 0.045,0.152l0,0.308l-0.099,0Z" style="fill-rule:nonzero;"/></g></g><g><path d="M212.437,167.204l0,28.8c0,1.987 -1.613,3.6 -3.6,3.6l-76.8,-0c-1.986,-0 -3.6,-1.613 -3.6,-3.6l0,-28.8c0,-1.987 1.614,-3.6 3.6,-3.6l76.8,-0c1.987,-0 3.6,1.613 3.6,3.6Z" style="fill:#ebf6f3;stroke:#3b9986;stroke-width:1px;stroke-dasharray:5,3,0,0,0,0;stroke-dashoffset:4;"/><path d="M150.755,185.806c-0.414,-0 -0.803,-0.039 -1.169,-0.118c-0.365,-0.078 -0.707,-0.195 -1.025,-0.351c-0.318,-0.156 -0.616,-0.352 -0.894,-0.586l0.745,-0.914c0.324,0.281 0.681,0.492 1.072,0.633c0.39,0.14 0.814,0.211 1.271,0.211c0.618,-0 1.096,-0.116 1.436,-0.346c0.34,-0.231 0.51,-0.553 0.51,-0.967l-0,-0.006c-0,-0.324 -0.086,-0.572 -0.258,-0.744c-0.172,-0.172 -0.398,-0.3 -0.677,-0.384c-0.279,-0.084 -0.585,-0.153 -0.917,-0.208c-0.32,-0.054 -0.643,-0.119 -0.97,-0.193c-0.326,-0.074 -0.626,-0.19 -0.899,-0.349c-0.274,-0.158 -0.493,-0.385 -0.659,-0.682c-0.166,-0.297 -0.249,-0.694 -0.249,-1.19l-0,-0.006c-0,-0.793 0.263,-1.407 0.791,-1.842c0.527,-0.436 1.271,-0.654 2.232,-0.654c0.457,0 0.904,0.074 1.342,0.22c0.437,0.146 0.863,0.37 1.277,0.671l-0.679,0.949c-0.325,-0.242 -0.648,-0.422 -0.97,-0.539c-0.322,-0.117 -0.646,-0.176 -0.97,-0.176c-0.582,0 -1.034,0.116 -1.356,0.349c-0.323,0.232 -0.484,0.561 -0.484,0.987l0,0.006c0,0.32 0.094,0.565 0.282,0.733c0.187,0.167 0.432,0.291 0.735,0.372c0.303,0.08 0.628,0.155 0.976,0.225c0.312,0.063 0.625,0.138 0.937,0.226c0.313,0.088 0.597,0.215 0.853,0.381c0.255,0.166 0.46,0.393 0.615,0.682c0.154,0.289 0.231,0.666 0.231,1.131l0,0.012c0,0.785 -0.273,1.392 -0.82,1.822c-0.547,0.43 -1.316,0.645 -2.309,0.645Z" style="fill-rule:nonzero;"/><path d="M157.678,185.806c-0.797,-0 -1.414,-0.232 -1.851,-0.695c-0.438,-0.463 -0.657,-1.114 -0.657,-1.954l0,-0.99c0,-0.832 0.219,-1.477 0.657,-1.934c0.437,-0.457 1.054,-0.685 1.851,-0.685c0.797,-0 1.414,0.228 1.852,0.685c0.437,0.457 0.656,1.102 0.656,1.934l0,1.008c0,0.836 -0.219,1.483 -0.656,1.942c-0.438,0.459 -1.055,0.689 -1.852,0.689Zm0,-1.137c0.418,-0 0.741,-0.131 0.97,-0.393c0.229,-0.261 0.343,-0.629 0.343,-1.101l-0,-1.008c-0,-0.473 -0.114,-0.838 -0.343,-1.096c-0.229,-0.258 -0.552,-0.386 -0.97,-0.386c-0.414,-0 -0.736,0.128 -0.967,0.386c-0.23,0.258 -0.345,0.623 -0.345,1.096l-0,1.008c-0,0.472 0.115,0.84 0.345,1.101c0.231,0.262 0.553,0.393 0.967,0.393Z" style="fill-rule:nonzero;"/><path d="M161.765,178.393l0,-1.195l1.196,0l-0,1.195l-1.196,0Zm0,7.325l0,-6.082l1.196,-0l-0,6.082l-1.196,-0Z" style="fill-rule:nonzero;"/><path d="M165.852,177.198l0,6.949c0,0.145 0.033,0.258 0.097,0.34c0.064,0.082 0.155,0.123 0.272,0.123l0.563,0l-0,1.137l-0.703,0c-0.449,0 -0.799,-0.141 -1.049,-0.422c-0.25,-0.281 -0.375,-0.678 -0.375,-1.189l0,-6.938l1.195,0Z" style="fill-rule:nonzero;"/><path d="M173.792,185.806c-0.414,-0 -0.804,-0.039 -1.169,-0.118c-0.365,-0.078 -0.707,-0.195 -1.025,-0.351c-0.319,-0.156 -0.617,-0.352 -0.894,-0.586l0.744,-0.914c0.325,0.281 0.682,0.492 1.073,0.633c0.39,0.14 0.814,0.211 1.271,0.211c0.617,-0 1.096,-0.116 1.436,-0.346c0.339,-0.231 0.509,-0.553 0.509,-0.967l0,-0.006c0,-0.324 -0.086,-0.572 -0.257,-0.744c-0.172,-0.172 -0.398,-0.3 -0.677,-0.384c-0.28,-0.084 -0.585,-0.153 -0.917,-0.208c-0.321,-0.054 -0.644,-0.119 -0.97,-0.193c-0.326,-0.074 -0.626,-0.19 -0.899,-0.349c-0.274,-0.158 -0.494,-0.385 -0.66,-0.682c-0.166,-0.297 -0.249,-0.694 -0.249,-1.19l0,-0.006c0,-0.793 0.264,-1.407 0.791,-1.842c0.528,-0.436 1.272,-0.654 2.233,-0.654c0.457,0 0.904,0.074 1.342,0.22c0.437,0.146 0.863,0.37 1.277,0.671l-0.68,0.949c-0.324,-0.242 -0.647,-0.422 -0.969,-0.539c-0.323,-0.117 -0.646,-0.176 -0.97,-0.176c-0.582,0 -1.034,0.116 -1.357,0.349c-0.322,0.232 -0.483,0.561 -0.483,0.987l0,0.006c0,0.32 0.094,0.565 0.281,0.733c0.188,0.167 0.433,0.291 0.736,0.372c0.302,0.08 0.628,0.155 0.975,0.225c0.313,0.063 0.625,0.138 0.938,0.226c0.312,0.088 0.596,0.215 0.852,0.381c0.256,0.166 0.461,0.393 0.615,0.682c0.155,0.289 0.232,0.666 0.232,1.131l-0,0.012c-0,0.785 -0.273,1.392 -0.82,1.822c-0.547,0.43 -1.317,0.645 -2.309,0.645Z" style="fill-rule:nonzero;"/><path d="M178.383,178.393l-0,-1.195l1.195,0l0,1.195l-1.195,0Zm-0,7.325l-0,-6.082l1.195,-0l0,6.082l-1.195,-0Z" style="fill-rule:nonzero;"/><path d="M181.275,185.718l-0,-6.082l1.195,-0l0,6.082l-1.195,-0Zm3.691,-0l0,-3.686c0,-0.43 -0.11,-0.762 -0.331,-0.996c-0.221,-0.234 -0.534,-0.351 -0.94,-0.351c-0.391,-0 -0.693,0.103 -0.906,0.31c-0.213,0.207 -0.319,0.498 -0.319,0.873l-0.123,-1.172c0.187,-0.367 0.433,-0.65 0.735,-0.849c0.303,-0.2 0.638,-0.299 1.005,-0.299c0.66,-0 1.171,0.216 1.532,0.647c0.362,0.432 0.542,1.042 0.542,1.831l0,3.692l-1.195,-0Z" style="fill-rule:nonzero;"/><path d="M188.297,184.827l0.076,-1.418l3.129,-3.773l1.407,-0l-4.612,5.191Zm-0.439,0.891l-0,-8.52l1.195,0l0,8.52l-1.195,-0Zm4.049,-0l-2.121,-3.51l0.767,-0.797l2.654,4.307l-1.3,-0Z" style="fill-rule:nonzero;"/></g><g><path d="M212.437,94.912l0,28.8c0,1.987 -1.613,3.6 -3.6,3.6l-76.8,0c-1.986,0 -3.6,-1.613 -3.6,-3.6l0,-28.8c0,-1.987 1.614,-3.6 3.6,-3.6l76.8,0c1.987,0 3.6,1.613 3.6,3.6Z" style="fill:#e9ecff;stroke:#41479c;stroke-width:1px;"/><path d="M147.89,113.66c-0.414,0 -0.804,-0.039 -1.169,-0.117c-0.365,-0.078 -0.707,-0.195 -1.025,-0.352c-0.319,-0.156 -0.616,-0.351 -0.894,-0.586l0.744,-0.914c0.325,0.282 0.682,0.492 1.073,0.633c0.39,0.141 0.814,0.211 1.271,0.211c0.617,0 1.096,-0.115 1.436,-0.346c0.339,-0.23 0.509,-0.552 0.509,-0.966l0,-0.006c0,-0.325 -0.086,-0.573 -0.257,-0.744c-0.172,-0.172 -0.398,-0.3 -0.677,-0.384c-0.279,-0.084 -0.585,-0.154 -0.917,-0.208c-0.32,-0.055 -0.644,-0.119 -0.97,-0.194c-0.326,-0.074 -0.626,-0.19 -0.899,-0.348c-0.274,-0.158 -0.493,-0.386 -0.659,-0.683c-0.167,-0.297 -0.25,-0.693 -0.25,-1.189l0,-0.006c0,-0.793 0.264,-1.407 0.792,-1.843c0.527,-0.436 1.271,-0.653 2.232,-0.653c0.457,-0 0.904,0.073 1.342,0.219c0.437,0.147 0.863,0.371 1.277,0.671l-0.68,0.95c-0.324,-0.243 -0.647,-0.422 -0.969,-0.539c-0.323,-0.118 -0.646,-0.176 -0.97,-0.176c-0.582,-0 -1.034,0.116 -1.357,0.348c-0.322,0.233 -0.483,0.562 -0.483,0.988l0,0.006c0,0.32 0.094,0.564 0.281,0.732c0.188,0.168 0.433,0.292 0.736,0.372c0.302,0.08 0.628,0.155 0.975,0.226c0.313,0.062 0.625,0.137 0.938,0.225c0.312,0.088 0.596,0.215 0.852,0.381c0.256,0.166 0.461,0.394 0.616,0.683c0.154,0.289 0.231,0.666 0.231,1.131l-0,0.011c-0,0.785 -0.273,1.393 -0.82,1.823c-0.547,0.429 -1.317,0.644 -2.309,0.644Z" style="fill-rule:nonzero;"/><path d="M153.676,105.053l0,6.949c0,0.144 0.033,0.258 0.097,0.34c0.064,0.082 0.155,0.123 0.272,0.123l0.563,-0l-0,1.136l-0.703,0c-0.449,0 -0.799,-0.14 -1.049,-0.421c-0.25,-0.282 -0.375,-0.678 -0.375,-1.19l0,-6.937l1.195,-0Z" style="fill-rule:nonzero;"/><path d="M158.168,113.66c-0.797,0 -1.414,-0.231 -1.852,-0.694c-0.437,-0.463 -0.656,-1.115 -0.656,-1.954l-0,-0.991c-0,-0.832 0.219,-1.476 0.656,-1.933c0.438,-0.457 1.055,-0.686 1.852,-0.686c0.797,0 1.414,0.229 1.851,0.686c0.438,0.457 0.656,1.101 0.656,1.933l0,1.008c0,0.836 -0.218,1.484 -0.656,1.943c-0.437,0.459 -1.054,0.688 -1.851,0.688Zm-0,-1.137c0.418,0 0.741,-0.131 0.969,-0.392c0.229,-0.262 0.343,-0.629 0.343,-1.102l0,-1.008c0,-0.472 -0.114,-0.838 -0.343,-1.095c-0.228,-0.258 -0.551,-0.387 -0.969,-0.387c-0.414,-0 -0.737,0.129 -0.967,0.387c-0.231,0.257 -0.346,0.623 -0.346,1.095l0,1.008c0,0.473 0.115,0.84 0.346,1.102c0.23,0.261 0.553,0.392 0.967,0.392Z" style="fill-rule:nonzero;"/><path d="M163.368,113.572l-1.875,-6.082l1.248,0l1.078,4.342l1.518,-4.342l0.832,0l1.517,4.342l1.078,-4.342l1.249,0l-1.875,6.082l-0.903,0l-1.482,-4.201l-1.483,4.201l-0.902,0Z" style="fill-rule:nonzero;"/><path d="M175.017,110.267l-0,-1.136l2.724,-0c0.391,-0 0.704,-0.135 0.941,-0.405c0.236,-0.269 0.354,-0.623 0.354,-1.06c0,-0.445 -0.118,-0.803 -0.354,-1.072c-0.237,-0.27 -0.55,-0.405 -0.941,-0.405l-2.724,0l-0,-1.136l2.683,-0c0.516,-0 0.965,0.108 1.348,0.325c0.383,0.217 0.681,0.52 0.893,0.911c0.213,0.391 0.32,0.85 0.32,1.377c-0,0.523 -0.107,0.98 -0.32,1.371c-0.212,0.391 -0.51,0.693 -0.893,0.908c-0.383,0.215 -0.832,0.322 -1.348,0.322l-2.683,0Zm-0.616,3.305l0,-8.519l1.196,-0l-0,8.519l-1.196,0Z" style="fill-rule:nonzero;"/><path d="M183.44,113.66c-0.797,0 -1.414,-0.231 -1.852,-0.694c-0.437,-0.463 -0.656,-1.115 -0.656,-1.954l-0,-0.991c-0,-0.832 0.219,-1.476 0.656,-1.933c0.438,-0.457 1.055,-0.686 1.852,-0.686c0.796,0 1.414,0.229 1.851,0.686c0.438,0.457 0.656,1.101 0.656,1.933l0,1.008c0,0.836 -0.218,1.484 -0.656,1.943c-0.437,0.459 -1.055,0.688 -1.851,0.688Zm-0,-1.137c0.418,0 0.741,-0.131 0.969,-0.392c0.229,-0.262 0.343,-0.629 0.343,-1.102l0,-1.008c0,-0.472 -0.114,-0.838 -0.343,-1.095c-0.228,-0.258 -0.551,-0.387 -0.969,-0.387c-0.414,-0 -0.737,0.129 -0.967,0.387c-0.231,0.257 -0.346,0.623 -0.346,1.095l0,1.008c0,0.473 0.115,0.84 0.346,1.102c0.23,0.261 0.553,0.392 0.967,0.392Z" style="fill-rule:nonzero;"/><path d="M189.859,113.66c-0.797,0 -1.414,-0.231 -1.852,-0.694c-0.437,-0.463 -0.656,-1.115 -0.656,-1.954l-0,-0.991c-0,-0.832 0.219,-1.476 0.656,-1.933c0.438,-0.457 1.055,-0.686 1.852,-0.686c0.797,0 1.414,0.229 1.851,0.686c0.438,0.457 0.656,1.101 0.656,1.933l0,1.008c0,0.836 -0.218,1.484 -0.656,1.943c-0.437,0.459 -1.054,0.688 -1.851,0.688Zm-0,-1.137c0.418,0 0.741,-0.131 0.969,-0.392c0.229,-0.262 0.343,-0.629 0.343,-1.102l0,-1.008c0,-0.472 -0.114,-0.838 -0.343,-1.095c-0.228,-0.258 -0.551,-0.387 -0.969,-0.387c-0.414,-0 -0.737,0.129 -0.967,0.387c-0.231,0.257 -0.346,0.623 -0.346,1.095l0,1.008c0,0.473 0.115,0.84 0.346,1.102c0.23,0.261 0.553,0.392 0.967,0.392Z" style="fill-rule:nonzero;"/><path d="M195.141,105.053l0,6.949c0,0.144 0.032,0.258 0.097,0.34c0.064,0.082 0.155,0.123 0.272,0.123l0.563,-0l-0,1.136l-0.703,0c-0.45,0 -0.799,-0.14 -1.049,-0.421c-0.25,-0.282 -0.375,-0.678 -0.375,-1.19l-0,-6.937l1.195,-0Z" style="fill-rule:nonzero;"/></g><g><path d="M212.437,22.912l0,28.8c0,1.987 -1.613,3.6 -3.6,3.6l-76.8,0c-1.986,0 -3.6,-1.613 -3.6,-3.6l0,-28.8c0,-1.986 1.614,-3.6 3.6,-3.6l76.8,0c1.987,0 3.6,1.614 3.6,3.6Z" style="fill:#ffefe6;stroke:#97582b;stroke-width:1px;"/><path d="M146.674,41.528l0,-8.519l1.196,-0l-0,8.519l-1.196,0Zm0.586,-3.586l0,-1.136l4.131,-0l0,1.136l-4.131,0Zm0,-3.797l0,-1.136l4.776,-0l-0,1.136l-4.776,0Z" style="fill-rule:nonzero;"/><path d="M156.58,41.528l-0,-3.855c-0,-0.399 -0.107,-0.708 -0.32,-0.929c-0.213,-0.221 -0.514,-0.331 -0.905,-0.331c-0.238,0 -0.474,0.036 -0.706,0.108c-0.232,0.073 -0.44,0.177 -0.624,0.314l-0.873,-0.598c0.23,-0.277 0.534,-0.493 0.911,-0.647c0.377,-0.155 0.796,-0.232 1.257,-0.232c0.762,0 1.351,0.198 1.769,0.592c0.418,0.395 0.627,0.951 0.627,1.67l0,3.908l-1.136,0Zm-1.489,0.088c-0.746,0 -1.305,-0.154 -1.678,-0.463c-0.373,-0.308 -0.56,-0.781 -0.56,-1.418c0,-0.605 0.171,-1.057 0.513,-1.356c0.342,-0.299 0.854,-0.448 1.538,-0.448l1.728,-0l0.082,0.961l-1.804,-0c-0.309,-0 -0.541,0.069 -0.698,0.208c-0.156,0.138 -0.234,0.35 -0.234,0.635c0,0.309 0.104,0.537 0.311,0.686c0.207,0.148 0.517,0.222 0.931,0.222c0.453,0 0.793,-0.048 1.02,-0.146c0.226,-0.098 0.34,-0.25 0.34,-0.457l0.123,0.855c-0.106,0.165 -0.237,0.299 -0.393,0.405c-0.156,0.105 -0.335,0.184 -0.536,0.237c-0.201,0.053 -0.429,0.079 -0.683,0.079Z" style="fill-rule:nonzero;"/><path d="M161.563,41.616c-0.539,0 -1.028,-0.079 -1.468,-0.237c-0.439,-0.158 -0.833,-0.396 -1.18,-0.712l0.709,-0.873c0.332,0.25 0.659,0.437 0.981,0.562c0.322,0.125 0.642,0.188 0.958,0.188c0.473,-0 0.827,-0.073 1.064,-0.22c0.236,-0.146 0.354,-0.366 0.354,-0.659c0,-0.227 -0.079,-0.387 -0.237,-0.48c-0.158,-0.094 -0.365,-0.156 -0.621,-0.185c-0.256,-0.029 -0.531,-0.054 -0.824,-0.073c-0.246,-0.02 -0.49,-0.05 -0.732,-0.091c-0.242,-0.041 -0.463,-0.115 -0.662,-0.223c-0.199,-0.107 -0.358,-0.266 -0.478,-0.477c-0.119,-0.211 -0.178,-0.494 -0.178,-0.85c-0,-0.644 0.197,-1.127 0.592,-1.447c0.394,-0.321 0.982,-0.481 1.763,-0.481c0.477,0 0.92,0.065 1.33,0.194c0.41,0.129 0.795,0.326 1.155,0.591l-0.721,0.874c-0.305,-0.196 -0.605,-0.342 -0.9,-0.44c-0.294,-0.098 -0.583,-0.146 -0.864,-0.146c-0.406,-0 -0.711,0.069 -0.914,0.208c-0.203,0.138 -0.305,0.346 -0.305,0.624c0,0.183 0.071,0.315 0.211,0.395c0.141,0.08 0.327,0.132 0.557,0.155c0.23,0.024 0.479,0.045 0.744,0.065c0.254,0.015 0.511,0.044 0.771,0.085c0.259,0.041 0.499,0.12 0.717,0.237c0.219,0.117 0.395,0.291 0.528,0.522c0.133,0.23 0.199,0.545 0.199,0.943c-0,0.652 -0.212,1.141 -0.636,1.465c-0.424,0.324 -1.061,0.486 -1.913,0.486Z" style="fill-rule:nonzero;"/><path d="M167.097,41.558c-0.5,-0 -0.862,-0.139 -1.086,-0.416c-0.225,-0.278 -0.337,-0.676 -0.337,-1.196l-0,-6.269l1.195,-0l-0,6.281c-0,0.144 0.029,0.258 0.088,0.34c0.058,0.082 0.144,0.123 0.258,0.123l0.574,-0l-0,1.137l-0.692,-0Zm-2.05,-5.034l-0,-1.078l2.742,0l-0,1.078l-2.742,0Z" style="fill-rule:nonzero;"/><path d="M173.145,38.224l-0,-1.137l2.724,-0c0.391,-0 0.704,-0.135 0.941,-0.404c0.236,-0.27 0.354,-0.623 0.354,-1.061c0,-0.445 -0.118,-0.803 -0.354,-1.072c-0.237,-0.27 -0.55,-0.405 -0.941,-0.405l-2.724,0l-0,-1.136l2.683,-0c0.516,-0 0.965,0.108 1.348,0.325c0.383,0.217 0.68,0.52 0.893,0.911c0.213,0.391 0.32,0.85 0.32,1.377c-0,0.523 -0.107,0.98 -0.32,1.371c-0.213,0.391 -0.51,0.693 -0.893,0.908c-0.383,0.215 -0.832,0.323 -1.348,0.323l-2.683,-0Zm-0.616,3.304l0,-8.519l1.196,-0l-0,8.519l-1.196,0Z" style="fill-rule:nonzero;"/><path d="M181.568,41.616c-0.797,0 -1.415,-0.231 -1.852,-0.694c-0.438,-0.463 -0.656,-1.114 -0.656,-1.954l-0,-0.991c-0,-0.832 0.218,-1.476 0.656,-1.933c0.437,-0.457 1.055,-0.686 1.852,-0.686c0.796,0 1.414,0.229 1.851,0.686c0.438,0.457 0.656,1.101 0.656,1.933l0,1.008c0,0.836 -0.218,1.484 -0.656,1.943c-0.437,0.459 -1.055,0.688 -1.851,0.688Zm-0,-1.137c0.418,0 0.741,-0.13 0.969,-0.392c0.229,-0.262 0.343,-0.629 0.343,-1.102l0,-1.008c0,-0.472 -0.114,-0.837 -0.343,-1.095c-0.228,-0.258 -0.551,-0.387 -0.969,-0.387c-0.415,0 -0.737,0.129 -0.967,0.387c-0.231,0.258 -0.346,0.623 -0.346,1.095l0,1.008c0,0.473 0.115,0.84 0.346,1.102c0.23,0.262 0.552,0.392 0.967,0.392Z" style="fill-rule:nonzero;"/><path d="M187.987,41.616c-0.797,0 -1.414,-0.231 -1.852,-0.694c-0.437,-0.463 -0.656,-1.114 -0.656,-1.954l-0,-0.991c-0,-0.832 0.219,-1.476 0.656,-1.933c0.438,-0.457 1.055,-0.686 1.852,-0.686c0.796,0 1.414,0.229 1.851,0.686c0.438,0.457 0.656,1.101 0.656,1.933l0,1.008c0,0.836 -0.218,1.484 -0.656,1.943c-0.437,0.459 -1.055,0.688 -1.851,0.688Zm-0,-1.137c0.418,0 0.741,-0.13 0.969,-0.392c0.229,-0.262 0.343,-0.629 0.343,-1.102l0,-1.008c0,-0.472 -0.114,-0.837 -0.343,-1.095c-0.228,-0.258 -0.551,-0.387 -0.969,-0.387c-0.414,0 -0.737,0.129 -0.967,0.387c-0.231,0.258 -0.346,0.623 -0.346,1.095l0,1.008c0,0.473 0.115,0.84 0.346,1.102c0.23,0.262 0.553,0.392 0.967,0.392Z" style="fill-rule:nonzero;"/><path d="M193.269,33.009l-0,6.949c-0,0.144 0.032,0.258 0.097,0.34c0.064,0.082 0.155,0.123 0.272,0.123l0.563,-0l-0,1.137l-0.704,-0c-0.449,-0 -0.798,-0.141 -1.048,-0.422c-0.25,-0.282 -0.375,-0.678 -0.375,-1.19l-0,-6.937l1.195,-0Z" style="fill-rule:nonzero;"/></g><g><path d="M86.861,58.912l-0,28.8c-0,1.987 -1.613,3.6 -3.6,3.6l-76.8,0c-1.987,0 -3.6,-1.613 -3.6,-3.6l-0,-28.8c-0,-1.987 1.613,-3.6 3.6,-3.6l76.8,0c1.987,0 3.6,1.613 3.6,3.6Z" style="fill:#fef7d7;stroke:#c39b01;stroke-width:1px;"/><path d="M13.559,77.776l3.141,-8.52l1.02,0l3.14,8.52l-1.289,-0l-2.361,-6.873l-2.362,6.873l-1.289,-0Zm1.448,-1.869l-0,-1.137l4.482,-0l0,1.137l-4.482,-0Z" style="fill-rule:nonzero;"/><path d="M21.912,80.248l0,-8.554l1.195,-0l0,8.554l-1.195,0Zm2.725,-2.384c-0.379,-0 -0.709,-0.091 -0.991,-0.273c-0.281,-0.181 -0.488,-0.438 -0.621,-0.77l0.082,-1.272c0,0.262 0.047,0.485 0.141,0.668c0.094,0.184 0.23,0.324 0.407,0.422c0.178,0.098 0.394,0.146 0.648,0.146c0.394,0 0.7,-0.12 0.917,-0.36c0.217,-0.24 0.325,-0.579 0.325,-1.016l-0,-1.319c-0,-0.445 -0.108,-0.791 -0.325,-1.037c-0.217,-0.246 -0.523,-0.369 -0.917,-0.369c-0.254,-0 -0.47,0.047 -0.648,0.141c-0.177,0.093 -0.313,0.23 -0.407,0.41c-0.094,0.179 -0.141,0.398 -0.141,0.656l-0.123,-1.172c0.184,-0.355 0.424,-0.63 0.721,-0.823c0.297,-0.194 0.627,-0.29 0.99,-0.29c0.653,-0 1.157,0.216 1.512,0.647c0.355,0.432 0.533,1.042 0.533,1.831l0,1.325c0,0.777 -0.183,1.38 -0.551,1.81c-0.367,0.43 -0.884,0.645 -1.552,0.645Z" style="fill-rule:nonzero;"/><path d="M28.319,80.248l0,-8.554l1.196,-0l-0,8.554l-1.196,0Zm2.725,-2.384c-0.379,-0 -0.709,-0.091 -0.99,-0.273c-0.281,-0.181 -0.488,-0.438 -0.621,-0.77l0.082,-1.272c-0,0.262 0.047,0.485 0.14,0.668c0.094,0.184 0.23,0.324 0.408,0.422c0.177,0.098 0.393,0.146 0.647,0.146c0.395,0 0.7,-0.12 0.917,-0.36c0.217,-0.24 0.325,-0.579 0.325,-1.016l0,-1.319c0,-0.445 -0.108,-0.791 -0.325,-1.037c-0.217,-0.246 -0.522,-0.369 -0.917,-0.369c-0.254,-0 -0.47,0.047 -0.647,0.141c-0.178,0.093 -0.314,0.23 -0.408,0.41c-0.093,0.179 -0.14,0.398 -0.14,0.656l-0.123,-1.172c0.183,-0.355 0.424,-0.63 0.72,-0.823c0.297,-0.194 0.627,-0.29 0.991,-0.29c0.652,-0 1.156,0.216 1.511,0.647c0.356,0.432 0.534,1.042 0.534,1.831l-0,1.325c-0,0.777 -0.184,1.38 -0.551,1.81c-0.367,0.43 -0.885,0.645 -1.553,0.645Z" style="fill-rule:nonzero;"/><path d="M35.922,69.256l0,6.949c0,0.145 0.032,0.258 0.097,0.34c0.064,0.082 0.155,0.123 0.272,0.123l0.563,0l-0,1.137l-0.703,0c-0.45,0 -0.799,-0.141 -1.049,-0.422c-0.25,-0.281 -0.375,-0.678 -0.375,-1.189l-0,-6.938l1.195,0Z" style="fill-rule:nonzero;"/><path d="M38.081,70.451l0,-1.195l1.196,0l-0,1.195l-1.196,0Zm0,7.325l0,-6.082l1.196,-0l-0,6.082l-1.196,-0Z" style="fill-rule:nonzero;"/><path d="M43.463,77.864c-0.847,-0 -1.504,-0.237 -1.968,-0.709c-0.465,-0.473 -0.698,-1.145 -0.698,-2.016l0,-0.686c0,-0.906 0.224,-1.607 0.671,-2.103c0.447,-0.496 1.077,-0.744 1.89,-0.744c0.765,-0 1.358,0.281 1.778,0.844c0.42,0.562 0.63,1.351 0.63,2.367l0,0.398l-4.101,0l-0,-0.961l2.964,0c-0.035,-0.492 -0.163,-0.877 -0.383,-1.154c-0.221,-0.277 -0.517,-0.416 -0.888,-0.416c-0.449,-0 -0.799,0.148 -1.049,0.445c-0.25,0.297 -0.375,0.717 -0.375,1.26l0,0.773c0,0.504 0.134,0.891 0.401,1.161c0.268,0.269 0.644,0.404 1.128,0.404c0.243,-0 0.483,-0.049 0.721,-0.147c0.238,-0.097 0.451,-0.234 0.639,-0.41l0.785,0.785c-0.301,0.289 -0.639,0.513 -1.014,0.671c-0.375,0.159 -0.752,0.238 -1.131,0.238Z" style="fill-rule:nonzero;"/><path d="M50.744,77.776l-0,-8.52l1.195,0l0,8.52l-1.195,-0Zm-1.53,0.105c-0.671,0 -1.19,-0.216 -1.555,-0.647c-0.365,-0.432 -0.548,-1.04 -0.548,-1.825l-0,-1.342c-0,-0.789 0.179,-1.4 0.536,-1.831c0.357,-0.432 0.86,-0.648 1.509,-0.648c0.359,0 0.688,0.094 0.987,0.281c0.299,0.188 0.54,0.452 0.724,0.791l-0.123,1.243c-0,-0.258 -0.047,-0.479 -0.141,-0.662c-0.094,-0.184 -0.229,-0.324 -0.407,-0.419c-0.178,-0.096 -0.394,-0.144 -0.648,-0.144c-0.394,0 -0.7,0.123 -0.917,0.369c-0.216,0.246 -0.325,0.592 -0.325,1.037l0,1.325c0,0.441 0.109,0.782 0.325,1.022c0.217,0.24 0.523,0.36 0.917,0.36c0.254,0 0.47,-0.049 0.648,-0.149c0.178,-0.1 0.313,-0.243 0.407,-0.431c0.094,-0.187 0.141,-0.412 0.141,-0.674l0.082,1.284c-0.11,0.273 -0.298,0.518 -0.566,0.735c-0.267,0.217 -0.616,0.325 -1.046,0.325Z" style="fill-rule:nonzero;"/><path d="M58.092,77.776l-0,-7.823l1.195,0l-0,7.823l-1.195,-0Zm-2.409,-7.383l0,-1.137l6.012,0l0,1.137l-6.012,-0Z" style="fill-rule:nonzero;"/><path d="M61.399,77.776l3.141,-8.52l1.02,0l3.14,8.52l-1.289,-0l-2.361,-6.873l-2.362,6.873l-1.289,-0Zm1.448,-1.869l-0,-1.137l4.482,-0l0,1.137l-4.482,-0Z" style="fill-rule:nonzero;"/><path d="M69.869,77.77l0,-8.514l1.084,0l4.166,6.586l-0.14,0.152l-0,-6.738l1.183,0l0,8.514l-1.096,-0l-4.154,-6.486l0.141,-0.153l-0,6.639l-1.184,-0Z" style="fill-rule:nonzero;"/></g></svg>