<?xml version="1.0" encoding="UTF-8" standalone="no"?><!DOCTYPE svg PUBLIC "-//W3C//DTD SVG 1.1//EN" "http://www.w3.org/Graphics/SVG/1.1/DTD/svg11.dtd"><svg width="100%" height="100%" viewBox="0 0 108 22" version="1.1" xmlns="http://www.w3.org/2000/svg" xmlns:xlink="http://www.w3.org/1999/xlink" xml:space="preserve" xmlns:serif="http://www.serif.com/" style="fill-rule:evenodd;clip-rule:evenodd;stroke-linejoin:round;stroke-miterlimit:2;"><rect id="Artboard1" x="0" y="0" width="108" height="21.684" style="fill:none;"/><clipPath id="_clip1"><rect x="0" y="0" width="108" height="21.684"/></clipPath><g clip-path="url(#_clip1)"><g><path d="M17.682,15.249l0,-9.382l-6.186,0l-0,9.382l-4.766,0l0,-14.193l15.718,-0l-0,14.193l-4.766,0Zm-5.539,-1.634l0,-7.096l4.891,0l-0,7.096c-1.258,-0.025 -3.308,-0.014 -4.891,-0m10.953,0.17l-0,-13.381l-17.015,0l0,13.369l-0.705,0.057c-2.732,0.188 -4.526,0.542 -4.526,0.542c0,-0 -0.306,0.254 -0.345,0.28c-0.344,0.231 0.008,0.317 0.242,0.433c0.092,0.045 0.097,0.07 0.064,0.164c-0.026,0.075 -0.239,0.118 -0.197,0.246c0.085,0.268 0.471,0.011 0.447,0.365c-0.029,0.415 -0.958,0.181 -1.052,0.567c-0.074,0.306 0.343,0.026 0.338,0.613c-0.005,0.585 0.424,1.171 1.626,1.469c0.285,0.07 1.624,0.048 0.935,0.446c-0.083,0.047 -0.359,0.04 -0.451,0.049c-0.133,0.014 -0.435,-0 -0.519,0.121c-0.13,0.187 0.147,0.182 0.105,0.356c-0.157,0.02 -0.492,0.015 -0.346,0.281c0.075,0.135 0.323,0.209 0.463,0.201c0.748,-0.04 0.645,0.026 0.877,0.052c-0.417,0.081 -0.795,0.513 0.777,0.471c0.035,0.238 0.459,0.216 0.605,0.184c9.788,-2.17 14.02,-1.245 14.05,-1.846c-0.137,-0.295 -1.517,-0.263 -1.745,-0.274c-0.896,-0.042 -2.799,0.052 -2.689,-0.178c0.049,-0.536 9.972,-0.403 8.809,-0.07c-0.052,0.015 -0.749,0.131 -0.836,0.177c-0.539,0.288 1.521,0.345 1.735,0.364c0.247,0.022 0.862,0.004 0.752,0.271c-0.035,0.082 -0.772,-0.008 -0.742,0.11c0.026,0.097 0.442,0.044 0.486,0.113c0.298,0.47 -3.649,0.236 -5.691,0.28c-0.598,0.013 -1.769,0.079 -2.38,0.161c-1.031,0.14 -0.152,0.38 1.454,0.529c0.861,0.08 5.285,0.435 9.041,0.928c1.128,0.205 1.465,-0.349 1.212,-0.501c-0.144,-0.085 0.474,-0.397 -0.217,-0.693c-0.44,-0.187 -0.078,-0.264 -0.051,-0.255c0.064,0.02 0.957,0.233 0.626,-0.067c-0.213,-0.194 0.146,-0.08 0.211,-0.085c0.832,-0.064 0.639,-0.378 0.691,-0.327c-0.248,-0.243 0.421,-0.419 0.267,-0.962c-0.046,-0.159 -1.003,-0.127 -0.374,-0.259c0.071,-0.015 0.946,0.009 0.136,-0.467c-0.187,-0.11 -0.366,-0.115 -0.635,-0.176c-0.601,-0.137 -0.15,-0.438 0.148,-0.389c0.365,0.061 0.733,-0.181 0.67,-0.538c-0.076,-0.484 -0.24,-1.171 0.255,-1.267c0.299,-0.277 -0.674,-0.605 -0.674,-0.605c0,0 -1.04,-0.479 -5.173,-0.817l-0.659,-0.042Z" style="fill-rule:nonzero;"/><path d="M40.685,2.534l-1.913,5.256l-0.759,-0l-1.366,-3.73c-0.444,1.226 -0.927,2.51 -1.364,3.73l-0.753,-0l-1.911,-5.256l1.021,-0l1.271,3.467l1.269,-3.467l0.942,-0l1.27,3.467l1.27,-3.467l1.023,-0Zm15.208,1.423l-0.971,0l-0,-0.409c-0,-0.029 -0.022,-0.051 -0.051,-0.051l-3.219,0c-0.03,0 -0.051,0.022 -0.051,0.051l-0,3.227c-0,0.029 0.021,0.051 0.051,0.051l3.219,-0c0.029,-0 0.051,-0.022 0.051,-0.051l-0,-0.992l-1.19,-0l0,-0.964l2.161,-0l-0,1.956c-0,0.562 -0.46,1.015 -1.022,1.015l-3.219,-0c-0.562,-0 -1.015,-0.453 -1.015,-1.015l0,-3.227c0,-0.561 0.453,-1.015 1.015,-1.015l3.219,0c0.562,0 1.022,0.454 1.022,1.015l-0,0.409Zm7.911,-0.46l-3.861,0l-0,1.183l3.109,-0l0,0.963l-3.109,0l-0,1.183l3.861,0l0,0.964l-4.833,-0l0,-5.256l4.833,-0l0,0.963Zm7.19,-0.963l0.971,-0l0,5.256l-1.051,-0l-3.24,-3.855l-0,3.855l-0.965,-0l0,-5.256l1.052,-0l3.233,3.854l0,-3.854Zm4.768,-0.001l0,5.257l-0.963,-0l-0,-5.257l0.963,0Zm7.255,0.001l0.971,-0l0,5.256l-1.051,-0l-3.241,-3.855l0,3.855l-0.964,-0l-0,-5.256l1.051,-0l3.234,3.854l0,-3.854Zm9.094,1.423l-0.971,0l0,-0.409c0,-0.029 -0.022,-0.051 -0.051,-0.051l-3.22,0c-0.029,0 -0.051,0.022 -0.051,0.051l0,3.227c0,0.029 0.022,0.051 0.051,0.051l3.22,-0c0.029,-0 0.051,-0.022 0.051,-0.051l0,-0.992l-1.19,-0l-0,-0.964l2.161,-0l-0,1.956c-0,0.562 -0.46,1.015 -1.022,1.015l-3.22,-0c-0.562,-0 -1.015,-0.453 -1.015,-1.015l0,-3.227c0,-0.561 0.453,-1.015 1.015,-1.015l3.22,0c0.562,0 1.022,0.454 1.022,1.015l-0,0.409Zm7.816,-0.46l-3.862,0l0,1.183l3.111,-0l-0,0.963l-3.111,0l0,1.183l3.862,0l-0,0.964l-4.833,-0l0,-5.256l4.833,-0l-0,0.963Zm7.099,-0.963l0.97,-0l0,5.256l-1.05,-0l-3.241,-3.855l0,3.855l-0.964,-0l-0,-5.256l1.051,-0l3.234,3.854l-0,-3.854Zm-63.149,2.526l0.526,-1.512c0.013,-0.035 0.022,-0.051 0.051,-0.051l1.597,0c0.029,0 0.035,0.014 0.051,0.051l0.527,1.512l-2.752,-0Zm3.176,-1.512c-0.211,-0.62 -0.453,-1.015 -1.015,-1.015l-1.584,0c-0.562,0 -0.804,0.395 -1.014,1.015l-1.524,4.242l0.997,-0l0.638,-1.767l3.403,-0l0.646,1.767l0.977,-0l-1.524,-4.242Z" style="fill-rule:nonzero;"/><path d="M35.624,11.933l0.467,-0l0,2.547c0,0.313 -0.251,0.563 -0.562,0.563l-1.987,-0c-0.31,-0 -0.561,-0.25 -0.561,-0.563l-0,-2.547l0.466,-0l0,2.547c0,0.053 0.043,0.095 0.095,0.095l1.987,0c0.052,0 0.095,-0.042 0.095,-0.095l0,-2.547Zm4.262,-0l0.466,-0l0,3.11l-0.552,-0l-2.091,-2.488l-0,2.488l-0.467,-0l0,-3.11l0.553,-0l2.091,2.487l-0,-2.487Zm2.097,-0l-0,3.11l-0.466,-0l-0,-3.11l0.466,-0Zm4.045,-0l0.536,-0l-1.793,3.11l-0.466,-0l-1.797,-3.11l0.54,-0l1.49,2.582l1.49,-2.582Zm3.814,0.466l-2.385,-0l0,0.855l1.919,-0l-0,0.468l-1.919,-0l0,0.853l2.385,0l-0,0.468l-2.85,-0l-0,-3.11l2.85,-0l-0,0.466Zm1.588,0.004l-0,1.062l2.081,0.001c0.052,0 0.096,-0.043 0.096,-0.095l-0,-0.873c-0,-0.052 -0.044,-0.094 -0.096,-0.094l-2.081,-0.001Zm2.643,0.968c-0,0.306 -0.251,0.562 -0.562,0.562l-0.315,0l0.877,1.044l-0,0.066l-0.553,-0l-0.933,-1.11l-1.062,0c-0.035,0 -0.065,-0.006 -0.095,-0.009l-0,1.119l-0.467,-0l0,-3.106l2.548,-0c0.311,-0 0.562,0.255 0.562,0.561l-0,0.873Zm22.699,-0.968l-0,1.062l2.081,0.001c0.052,0 0.096,-0.043 0.096,-0.095l-0,-0.873c-0,-0.052 -0.044,-0.094 -0.096,-0.094l-2.081,-0.001Zm2.643,0.968c-0,0.306 -0.251,0.562 -0.562,0.562l-0.315,0l0.877,1.044l-0,0.066l-0.553,-0l-0.933,-1.11l-1.062,0c-0.035,0 -0.065,-0.006 -0.095,-0.009l-0,1.119l-0.467,-0l0,-3.106l2.548,-0c0.311,-0 0.562,0.255 0.562,0.561l-0,0.873Zm17.686,-0.968l0,1.062l2.082,0.001c0.052,0 0.095,-0.043 0.095,-0.095l0,-0.873c0,-0.052 -0.043,-0.094 -0.095,-0.094l-2.082,-0.001Zm2.643,0.968c0,0.306 -0.25,0.562 -0.561,0.562l-0.316,0l0.877,1.044l0,0.066l-0.553,-0l-0.933,-1.11l-1.062,0c-0.034,0 -0.065,-0.006 -0.095,-0.009l0,1.119l-0.466,-0l-0,-3.106l2.548,-0c0.311,-0 0.561,0.255 0.561,0.561l0,0.873Zm-41.449,-0.695l-0.466,-0l0,-0.182c0,-0.051 -0.043,-0.095 -0.095,-0.095l-1.987,-0c-0.051,-0 -0.094,0.044 -0.094,0.095l-0,0.666c-0,0.052 0.043,0.093 0.094,0.093l1.987,0c0.311,0 0.561,0.252 0.561,0.563l0,0.665c0,0.311 -0.25,0.562 -0.561,0.562l-1.987,-0c-0.311,-0 -0.561,-0.251 -0.561,-0.562l-0,-0.182l0.467,0l-0,0.182c-0,0.052 0.043,0.095 0.094,0.095l1.987,-0c0.052,-0 0.095,-0.043 0.095,-0.095l0,-0.665c0,-0.052 -0.043,-0.094 -0.095,-0.094l-1.987,-0c-0.311,-0 -0.561,-0.252 -0.561,-0.562l-0,-0.666c-0,-0.311 0.25,-0.561 0.561,-0.561l1.987,0c0.311,0 0.561,0.25 0.561,0.561l0,0.182Zm1.609,-0.743l0,3.11l-0.466,-0l0,-3.11l0.466,-0Zm3.876,-0l0,0.466l-1.321,-0l-0,2.644l-0.466,-0l-0,-2.644l-1.322,-0l-0,-0.466l3.109,-0Zm3.66,-0l-1.434,1.943l-0,1.167l-0.466,-0l-0,-1.167l-1.434,-1.943l0.548,-0l1.119,1.416l1.114,-1.416l0.553,-0Zm15.968,0.466l-2.384,-0l0,0.855l1.918,-0l-0,0.468l-1.918,-0l0,0.853l2.384,0l-0,0.468l-2.85,-0l-0,-3.11l2.85,-0l-0,0.466Zm4.059,0.277l-0.467,-0l-0,-0.182c-0,-0.051 -0.044,-0.095 -0.095,-0.095l-1.987,-0c-0.052,-0 -0.095,0.044 -0.095,0.095l0,0.666c0,0.052 0.043,0.093 0.095,0.093l1.987,0c0.311,0 0.562,0.252 0.562,0.563l-0,0.665c-0,0.311 -0.251,0.562 -0.562,0.562l-1.987,-0c-0.312,-0 -0.561,-0.251 -0.561,-0.562l-0,-0.182l0.466,0l0,0.182c0,0.052 0.043,0.095 0.095,0.095l1.987,-0c0.051,-0 0.095,-0.043 0.095,-0.095l-0,-0.665c-0,-0.052 -0.044,-0.094 -0.095,-0.094l-1.987,-0c-0.312,-0 -0.561,-0.252 -0.561,-0.562l-0,-0.666c-0,-0.311 0.249,-0.561 0.561,-0.561l1.987,0c0.311,0 0.562,0.25 0.562,0.561l-0,0.182Zm3.997,-0.277l-2.384,-0l0,0.855l1.917,-0l0,0.468l-1.917,-0l0,0.853l2.384,0l-0,0.468l-2.85,-0l-0,-3.11l2.85,-0l-0,0.466Zm3.464,1.088l-0.385,-0.993c-0.023,-0.059 -0.043,-0.096 -0.095,-0.096l-0.906,0c-0.052,0 -0.067,0.029 -0.095,0.096l-0.372,0.993l1.853,-0Zm-0.48,-1.554c0.311,-0 0.493,0.237 0.612,0.561l0.903,2.549l-0.49,-0l-0.407,-1.089l-2.159,-0l-0.399,1.089l-0.468,-0l0.94,-2.549c0.121,-0.348 0.251,-0.561 0.562,-0.561l0.906,-0Zm6.916,0.466c-0.051,-0 -0.094,0.044 -0.094,0.095l-0,1.986c-0,0.053 0.043,0.095 0.094,0.095l2.54,0l-0,0.468l-2.54,-0c-0.311,-0 -0.562,-0.25 -0.562,-0.563l0,-1.986c0,-0.31 0.251,-0.561 0.562,-0.561l2.54,-0l-0,0.466l-2.54,-0Zm6.636,-0.466l-0,3.11l-0.466,-0l-0,-1.321l-2.251,-0l-0,1.321l-0.466,-0l-0,-3.11l0.466,-0l-0,1.321l2.251,-0l-0,-1.321l0.466,-0Zm-35.548,2.55c0,0.052 -0.042,0.095 -0.095,0.095l-1.985,0c-0.052,0 -0.095,-0.042 -0.095,-0.095l-0.001,-0.928c-0,-0.014 0.003,-0.026 0.007,-0.037c0.016,-0.034 0.054,-0.058 0.108,-0.058l0.565,-0l1.496,0.944l0,0.079Zm1.015,0.1l-0.548,-0.343l0,-0.892l-0.467,0l0,0.599c0,-0 -1.701,-1.069 -1.712,-1.074l-0.009,-0.005c-0.029,-0.016 -0.05,-0.046 -0.05,-0.082l-0,-0.285c-0,-0.053 0.043,-0.095 0.095,-0.095l1.149,-0c0.052,-0 0.095,0.042 0.095,0.095l0,0.206l0.466,-0l-0,-0.306c-0.047,-0.264 -0.285,-0.466 -0.561,-0.466l-1.149,-0c-0.311,-0 -0.56,0.25 -0.56,0.561l-0,0.35c0.014,0.159 0.089,0.215 0.241,0.304l-0.086,-0.001c-0.311,0 -0.562,0.093 -0.562,0.404l0,0.929c0,0.313 0.25,0.563 0.562,0.563l1.986,-0c0.243,-0 0.449,-0.153 0.528,-0.367l0.001,0l0.581,0.367l-0,-0.462Z" style="fill-rule:nonzero;"/></g></g></svg>